<svg width="24" height="24" viewBox="0 0 24 24" fill="none" xmlns="http://www.w3.org/2000/svg">
<path d="M18.53 19.2399H5.4C5.24283 19.2414 5.0893 19.1927 4.96164 19.101C4.83399 19.0093 4.73885 18.8793 4.69 18.7299L1.5 8.99994C1.45113 8.86003 1.446 8.70855 1.4853 8.56565C1.5246 8.42275 1.60646 8.29519 1.72 8.19994C1.83215 8.10155 1.97141 8.03935 2.11953 8.02151C2.26764 8.00366 2.4177 8.031 2.55 8.09994L8.37 10.9999L11.37 5.17994C11.4392 5.06391 11.5373 4.96784 11.6547 4.90112C11.7722 4.83439 11.9049 4.79932 12.04 4.79932C12.1751 4.79932 12.3078 4.83439 12.4253 4.90112C12.5427 4.96784 12.6408 5.06391 12.71 5.17994L15.71 11.0099L21.54 8.10994C21.6708 8.04184 21.8191 8.01495 21.9655 8.0328C22.1119 8.05065 22.2494 8.11241 22.36 8.20994C22.4557 8.31485 22.5197 8.44479 22.5445 8.58465C22.5693 8.7245 22.5539 8.86852 22.5 8.99994L19.24 18.7199C19.1929 18.8712 19.0985 19.0034 18.9707 19.097C18.8429 19.1906 18.6884 19.2407 18.53 19.2399V19.2399ZM6 17.7399H18L20.51 10.2499L15.64 12.6699C15.5528 12.7146 15.4576 12.7414 15.3599 12.749C15.2623 12.7565 15.1641 12.7446 15.0711 12.7139C14.978 12.6832 14.892 12.6343 14.818 12.5701C14.744 12.5059 14.6835 12.4277 14.64 12.3399L12 7.15994L9.37 12.3399C9.32648 12.4277 9.26597 12.5059 9.19197 12.5701C9.11798 12.6343 9.03198 12.6832 8.93895 12.7139C8.84593 12.7446 8.74774 12.7565 8.65007 12.749C8.5524 12.7414 8.45721 12.7146 8.37 12.6699L3.48 10.2199L6 17.7399Z" fill="#F4B740"/>
<path d="M12 14.72C11.8019 14.7174 11.6126 14.6375 11.4725 14.4974C11.3324 14.3573 11.2526 14.1681 11.25 13.97C11.2487 13.872 11.2668 13.7747 11.3034 13.6837C11.34 13.5928 11.3943 13.51 11.4632 13.4402C11.532 13.3705 11.614 13.3151 11.7045 13.2772C11.7949 13.2394 11.892 13.22 11.99 13.22V13.22C12.1889 13.22 12.3797 13.299 12.5203 13.4396C12.661 13.5803 12.74 13.7711 12.74 13.97C12.74 14.1689 12.661 14.3596 12.5203 14.5003C12.3797 14.641 12.1889 14.72 11.99 14.72H12Z" fill="#F4B740"/>
</svg>
