<svg width="72" height="72" viewBox="0 0 72 72" fill="none" xmlns="http://www.w3.org/2000/svg">
<path d="M50.3728 46.9688C50.3728 49.8021 49.3103 52.1458 47.1853 54C45.0603 55.8333 42.0916 56.9896 38.2791 57.4688V64.7188H34.2478V57.75C31.9145 57.75 29.6541 57.5729 27.4666 57.2188C25.2791 56.8438 23.4874 56.3333 22.0916 55.6875V50.8125C23.8208 51.5833 25.8103 52.2188 28.0603 52.7188C30.3312 53.1979 32.3937 53.4375 34.2478 53.4375V39.6875C29.977 38.3333 26.977 36.7604 25.2478 34.9688C23.5395 33.1771 22.6853 30.8646 22.6853 28.0312C22.6853 25.3021 23.7374 23.0625 25.8416 21.3125C27.9666 19.5625 30.7687 18.5 34.2478 18.125V12.4375H38.2791V18.0625C42.1124 18.1667 45.8103 18.9375 49.3728 20.375L47.7478 24.4688C44.6437 23.2396 41.4874 22.5104 38.2791 22.2812V35.8438C41.5499 36.8854 43.9978 37.9062 45.6228 38.9062C47.2478 39.8854 48.4458 41.0208 49.2166 42.3125C49.9874 43.5833 50.3728 45.1354 50.3728 46.9688ZM45.0603 47.375C45.0603 45.875 44.5916 44.6667 43.6541 43.75C42.7374 42.8125 40.9458 41.8854 38.2791 40.9688V53.125C42.7999 52.5 45.0603 50.5833 45.0603 47.375ZM27.9666 27.9688C27.9666 29.5521 28.4353 30.8229 29.3728 31.7812C30.3103 32.7396 31.9353 33.6458 34.2478 34.5V22.4062C32.1853 22.7396 30.6228 23.3958 29.5603 24.375C28.4978 25.3333 27.9666 26.5312 27.9666 27.9688Z" fill="#F4B740"/>
</svg>
