<svg width="25" height="24" viewBox="0 0 25 24" fill="none" xmlns="http://www.w3.org/2000/svg">
<g clip-path="url(#clip0)">
<path d="M12.092 24C18.7703 24 24.184 18.6274 24.184 12C24.184 5.37258 18.7703 0 12.092 0C5.41378 0 0 5.37258 0 12C0 18.6274 5.41378 24 12.092 24Z" fill="#3C5A9A"/>
<path d="M16.0237 3.68298H13.345C11.7555 3.68298 9.98738 4.34646 9.98738 6.63313C9.99514 7.42989 9.98738 8.19295 9.98738 9.05173H8.14844V11.9558H10.0443V20.3161H13.528V11.9006H15.8274L16.0354 9.04358H13.468C13.468 9.04358 13.4737 7.77265 13.468 7.40357C13.468 6.49993 14.4154 6.55168 14.4724 6.55168C14.9233 6.55168 15.8 6.55298 16.025 6.55168V3.68298H16.0237Z" fill="white"/>
</g>
<defs>
<clipPath id="clip0">
<rect width="24.184" height="24" fill="white"/>
</clipPath>
</defs>
</svg>
