<svg width="42" height="48" viewBox="0 0 42 48" fill="none" xmlns="http://www.w3.org/2000/svg">
<g clip-path="url(#clip0)">
<path d="M21.0091 13.2188C15.0466 13.2188 10.2372 18.0282 10.2372 23.9907C10.2372 29.9531 15.0466 34.7625 21.0091 34.7625C26.9716 34.7625 31.781 29.9531 31.781 23.9907C31.781 18.0282 26.9716 13.2188 21.0091 13.2188ZM21.0091 30.9938C17.156 30.9938 14.006 27.8531 14.006 23.9907C14.006 20.1282 17.1466 16.9875 21.0091 16.9875C24.8716 16.9875 28.0122 20.1282 28.0122 23.9907C28.0122 27.8531 24.8622 30.9938 21.0091 30.9938ZM34.7341 12.7782C34.7341 14.175 33.6091 15.2907 32.2216 15.2907C30.8247 15.2907 29.7091 14.1657 29.7091 12.7782C29.7091 11.3907 30.8341 10.2657 32.2216 10.2657C33.6091 10.2657 34.7341 11.3907 34.7341 12.7782ZM41.8685 15.3282C41.7091 11.9625 40.9403 8.98129 38.4747 6.52504C36.0185 4.0688 33.0372 3.30005 29.6716 3.1313C26.2028 2.93442 15.806 2.93442 12.3372 3.1313C8.98096 3.29067 5.99971 4.05942 3.53408 6.51567C1.06846 8.97192 0.309082 11.9532 0.140332 15.3188C-0.056543 18.7875 -0.056543 29.1844 0.140332 32.6531C0.299707 36.0188 1.06846 39 3.53408 41.4563C5.99971 43.9125 8.97158 44.6813 12.3372 44.85C15.806 45.0469 26.2028 45.0469 29.6716 44.85C33.0372 44.6906 36.0185 43.9219 38.4747 41.4563C40.931 39 41.6997 36.0188 41.8685 32.6531C42.0653 29.1844 42.0653 18.7969 41.8685 15.3282ZM37.3872 36.375C36.656 38.2125 35.2403 39.6281 33.3935 40.3688C30.6278 41.4656 24.0653 41.2125 21.0091 41.2125C17.9528 41.2125 11.381 41.4563 8.62471 40.3688C6.78721 39.6375 5.37158 38.2219 4.63096 36.375C3.53408 33.6094 3.78721 27.0469 3.78721 23.9907C3.78721 20.9344 3.54346 14.3625 4.63096 11.6063C5.36221 9.76879 6.77783 8.35317 8.62471 7.61254C11.3903 6.51567 17.9528 6.76879 21.0091 6.76879C24.0653 6.76879 30.6372 6.52504 33.3935 7.61254C35.231 8.34379 36.6466 9.75942 37.3872 11.6063C38.4841 14.3719 38.231 20.9344 38.231 23.9907C38.231 27.0469 38.4841 33.6188 37.3872 36.375Z" fill="#FCFCFC" fill-opacity="0.7"/>
</g>
<defs>
<clipPath id="clip0">
<rect width="42" height="48" fill="white"/>
</clipPath>
</defs>
</svg>
