<svg width="24" height="24" viewBox="0 0 24 24" fill="none" xmlns="http://www.w3.org/2000/svg">
<path d="M18.43 19C15.56 19 14.06 16.33 13.55 15.18H10.45C9.94 16.37 8.44 19 5.57 19C1.68 19 1.68 15.73 1.68 14.34C1.68 12.65 4.38 7.34 4.92 6.34C4.99264 6.23013 5.09259 6.14102 5.21005 6.08142C5.3275 6.02181 5.45843 5.99376 5.59 6H18.41C18.5484 6.00084 18.684 6.03948 18.8021 6.11173C18.9202 6.18399 19.0163 6.28712 19.08 6.41C19.62 7.41 22.32 12.73 22.32 14.41C22.32 15.77 22.32 19 18.43 19ZM9.94 13.72H14.06C14.2172 13.7186 14.3707 13.7673 14.4984 13.859C14.626 13.9506 14.7212 14.0806 14.77 14.23C14.77 14.23 15.93 17.54 18.43 17.54C20.65 17.54 20.82 16.23 20.82 14.38C20.82 13.46 19.21 9.92 17.95 7.46H6.05C4.79 9.92 3.18 13.46 3.18 14.38C3.18 16.23 3.35 17.54 5.57 17.54C8.07 17.54 9.22 14.26 9.23 14.23C9.27885 14.0806 9.37399 13.9506 9.50164 13.859C9.6293 13.7673 9.78283 13.7186 9.94 13.72V13.72Z" fill="#F4B740"/>
<path d="M12 7.45996C11.8248 7.4607 11.6549 7.4001 11.5198 7.28868C11.3846 7.17726 11.2927 7.02205 11.26 6.84996C11.1603 6.20462 11.1903 5.54587 11.3482 4.91227C11.5062 4.27867 11.789 3.68294 12.18 3.15996C12.7218 2.58535 13.3862 2.14037 14.1237 1.85816C14.8613 1.57594 15.6531 1.46375 16.44 1.52996C16.5385 1.52996 16.636 1.54935 16.727 1.58705C16.818 1.62474 16.9007 1.67998 16.9703 1.74963C17.04 1.81927 17.0952 1.90195 17.1329 1.99294C17.1706 2.08394 17.19 2.18146 17.19 2.27996C17.19 2.37845 17.1706 2.47597 17.1329 2.56697C17.0952 2.65796 17.04 2.74064 16.9703 2.81029C16.9007 2.87993 16.818 2.93517 16.727 2.97286C16.636 3.01056 16.5385 3.02996 16.44 3.02996C15.8758 2.97246 15.3058 3.03936 14.7702 3.22596C14.2346 3.41255 13.7464 3.7143 13.34 4.10996C12.8291 4.82519 12.6142 5.71006 12.74 6.57996C12.7573 6.67715 12.7551 6.7768 12.7338 6.87318C12.7125 6.96956 12.6723 7.06078 12.6156 7.14161C12.559 7.22244 12.4869 7.29128 12.4036 7.34419C12.3202 7.39711 12.2273 7.43305 12.13 7.44995L12 7.45996Z" fill="#F4B740"/>
</svg>
