<svg width="24" height="24" viewBox="0 0 24 24" fill="none" xmlns="http://www.w3.org/2000/svg">
<path d="M13.08 20.49C11.686 20.4801 10.3146 20.1372 9.08 19.49C8.90825 19.3965 8.77916 19.2404 8.71956 19.0542C8.65996 18.8679 8.67444 18.6659 8.76 18.49C8.85165 18.3164 9.0077 18.1857 9.19466 18.1258C9.38163 18.066 9.5846 18.0819 9.76 18.17C11.2009 18.9109 12.8466 19.1536 14.44 18.86C15.7143 18.6085 16.8977 18.0193 17.8663 17.154C18.835 16.2887 19.5534 15.179 19.9464 13.941C20.3395 12.703 20.3927 11.3822 20.1006 10.1166C19.8084 8.85096 19.1817 7.68708 18.2858 6.7466C17.3899 5.80613 16.2578 5.12361 15.0078 4.7704C13.7579 4.41719 12.436 4.40627 11.1804 4.73877C9.9248 5.07127 8.78158 5.73498 7.87027 6.66051C6.95895 7.58605 6.31302 8.73941 6 10C5.54982 11.8706 5.85523 13.8432 6.85 15.49C6.94402 15.6571 6.97051 15.8538 6.92401 16.0398C6.87752 16.2257 6.76158 16.3869 6.6 16.49C6.43294 16.584 6.23622 16.6105 6.05025 16.564C5.86427 16.5175 5.70316 16.4016 5.6 16.24C4.86967 15.0325 4.44297 13.6659 4.35647 12.2573C4.26996 10.8487 4.52622 9.44015 5.1033 8.1523C5.68037 6.86445 6.56105 5.73569 7.66989 4.86274C8.77873 3.98979 10.0827 3.39867 11.47 3.14002C13.7522 2.71434 16.11 3.2127 18.0247 4.52546C19.9395 5.83821 21.2543 7.85783 21.68 10.14C22.1057 12.4222 21.6073 14.78 20.2946 16.6948C18.9818 18.6095 16.9622 19.9243 14.68 20.35C14.1515 20.4412 13.6163 20.4881 13.08 20.49Z" fill="#F4B740"/>
<path d="M5.33 21C5.09026 21.0058 4.85296 20.9507 4.64025 20.84C4.42754 20.7292 4.24634 20.5664 4.11355 20.3667C3.98075 20.1671 3.9007 19.937 3.88084 19.698C3.86099 19.459 3.90198 19.2189 4 19L5.53 15.58C5.56891 15.4879 5.62608 15.4047 5.69806 15.3353C5.77004 15.2659 5.85533 15.2118 5.94879 15.1763C6.04224 15.1408 6.14193 15.1246 6.24182 15.1287C6.34172 15.1327 6.43975 15.157 6.53 15.2C6.71235 15.283 6.85458 15.4346 6.92574 15.6219C6.9969 15.8091 6.99124 16.0169 6.91 16.2L5.48 19.45L9.15 18.14C9.2444 18.0986 9.34632 18.0771 9.44941 18.0768C9.55249 18.0765 9.65453 18.0975 9.74914 18.1384C9.84376 18.1794 9.92892 18.2393 9.99932 18.3147C10.0697 18.39 10.1238 18.479 10.1583 18.5761C10.1927 18.6733 10.2068 18.7765 10.1996 18.8793C10.1923 18.9822 10.164 19.0824 10.1163 19.1738C10.0686 19.2652 10.0026 19.3458 9.92235 19.4105C9.84212 19.4752 9.74941 19.5227 9.65 19.55L5.8 20.92C5.64955 20.9752 5.49024 21.0023 5.33 21V21Z" fill="#F4B740"/>
<path d="M16 10.75H10C9.80109 10.75 9.61032 10.671 9.46967 10.5303C9.32902 10.3897 9.25 10.1989 9.25 10C9.25 9.80109 9.32902 9.61032 9.46967 9.46967C9.61032 9.32902 9.80109 9.25 10 9.25H16C16.1989 9.25 16.3897 9.32902 16.5303 9.46967C16.671 9.61032 16.75 9.80109 16.75 10C16.75 10.1989 16.671 10.3897 16.5303 10.5303C16.3897 10.671 16.1989 10.75 16 10.75V10.75Z" fill="#F4B740"/>
<path d="M16 14.75H10C9.80109 14.75 9.61032 14.671 9.46967 14.5303C9.32902 14.3897 9.25 14.1989 9.25 14C9.25 13.8011 9.32902 13.6103 9.46967 13.4697C9.61032 13.329 9.80109 13.25 10 13.25H16C16.1989 13.25 16.3897 13.329 16.5303 13.4697C16.671 13.6103 16.75 13.8011 16.75 14C16.75 14.1989 16.671 14.3897 16.5303 14.5303C16.3897 14.671 16.1989 14.75 16 14.75V14.75Z" fill="#F4B740"/>
</svg>
