<svg width="72" height="72" viewBox="0 0 72 72" fill="none" xmlns="http://www.w3.org/2000/svg">
<path d="M35.4001 67.0351C9.30013 67.0351 9.00013 41.0251 9.00013 40.7851V16.6051C8.99548 16.1768 9.11478 15.7564 9.34367 15.3944C9.57256 15.0325 9.90125 14.7444 10.2901 14.5651L34.2901 3.22506C34.5885 3.07703 34.9171 3 35.2501 3C35.5832 3 35.9118 3.07703 36.2101 3.22506L60.3601 14.5651C60.749 14.7444 61.0777 15.0325 61.3066 15.3944C61.5355 15.7564 61.6548 16.1768 61.6501 16.6051V40.8751C61.8601 41.0251 61.5601 67.0351 35.4001 67.0351ZM13.5601 17.9251V40.7851C13.5601 41.6551 13.8901 62.5351 35.4601 62.5351C57.0301 62.5351 57.3601 41.5351 57.3601 40.7551V17.9251L35.4001 7.60506L13.5601 17.9251Z" fill="#F4B740"/>
<path d="M12.6601 49.605C12.2156 49.5965 11.7833 49.4582 11.4163 49.2071C11.0494 48.9561 10.7639 48.6032 10.5949 48.1919C10.4259 47.7807 10.3809 47.329 10.4653 46.8925C10.5498 46.4559 10.76 46.0536 11.0701 45.735L47.0701 9.73505C47.4998 9.29346 48.0873 9.04064 48.7033 9.0322C49.3194 9.02376 49.9135 9.2604 50.3551 9.69005C50.7967 10.1197 51.0495 10.7072 51.058 11.3232C51.0664 11.9393 50.8298 12.5335 50.4001 12.975L14.4001 48.975C14.1672 49.1914 13.8931 49.3587 13.5942 49.4669C13.2952 49.5751 12.9776 49.6221 12.6601 49.605V49.605Z" fill="#F4B740"/>
<path d="M20.7901 62.865C20.1961 62.8521 19.6287 62.6165 19.2001 62.205C18.7788 61.7831 18.5421 61.2113 18.5421 60.615C18.5421 60.0188 18.7788 59.4469 19.2001 59.025L57.9601 20.265C58.3866 19.8676 58.9508 19.6512 59.5337 19.6615C60.1166 19.6718 60.6728 19.9079 61.085 20.3201C61.4972 20.7324 61.7334 21.2885 61.7436 21.8714C61.7539 22.4543 61.5376 23.0185 61.1401 23.445L22.3801 62.205C21.955 62.6217 21.3854 62.8581 20.7901 62.865V62.865Z" fill="#F4B740"/>
</svg>
