<svg width="100" height="72" viewBox="0 0 100 72" fill="none" xmlns="http://www.w3.org/2000/svg">
<path d="M50 41.25C46.5883 41.25 43.2532 40.2383 40.4164 38.3429C37.5797 36.4474 35.3687 33.7533 34.0631 30.6013C32.7575 27.4493 32.4159 23.9809 33.0815 20.6347C33.7471 17.2885 35.39 14.2149 37.8024 11.8024C40.2149 9.38996 43.2885 7.74706 46.6347 7.08146C49.9809 6.41587 53.4493 6.75747 56.6013 8.06309C59.7533 9.3687 62.4474 11.5797 64.3429 14.4164C66.2383 17.2532 67.25 20.5883 67.25 24C67.2421 28.5726 65.4221 32.9556 62.1888 36.1888C58.9556 39.4221 54.5726 41.2421 50 41.25ZM50 11.25C47.4783 11.25 45.0132 11.9978 42.9165 13.3988C40.8198 14.7998 39.1856 16.791 38.2205 19.1208C37.2555 21.4506 37.003 24.0142 37.495 26.4874C37.987 28.9607 39.2013 31.2325 40.9844 33.0156C42.7675 34.7987 45.0393 36.0131 47.5126 36.505C49.9859 36.997 52.5495 36.7445 54.8792 35.7795C57.209 34.8145 59.2003 33.1803 60.6012 31.0835C62.0022 28.9868 62.75 26.5217 62.75 24C62.7421 20.6209 61.3962 17.3825 59.0069 14.9931C56.6175 12.6038 53.3791 11.2579 50 11.25Z" fill="#F4B740"/>
<path d="M77 65.25C76.4057 65.2422 75.8379 65.0027 75.4176 64.5824C74.9973 64.1621 74.7578 63.5943 74.75 63C74.7421 57.234 72.448 51.7064 68.3708 47.6292C64.2936 43.552 58.766 41.2579 53 41.25H47C41.234 41.2579 35.7064 43.552 31.6292 47.6292C27.552 51.7064 25.2579 57.234 25.25 63C25.25 63.5967 25.0129 64.169 24.591 64.591C24.169 65.0129 23.5967 65.25 23 65.25C22.4033 65.25 21.831 65.0129 21.409 64.591C20.9871 64.169 20.75 63.5967 20.75 63C20.7579 56.0405 23.5261 49.3683 28.4472 44.4472C33.3683 39.5261 40.0405 36.7579 47 36.75H53C59.9595 36.7579 66.6317 39.5261 71.5528 44.4472C76.4739 49.3683 79.2421 56.0405 79.25 63C79.2422 63.5943 79.0027 64.1621 78.5824 64.5824C78.1621 65.0027 77.5943 65.2422 77 65.25Z" fill="#F4B740"/>
<path d="M26 45.7917C28.464 45.7917 30.8727 45.061 32.9215 43.6921C34.9702 42.3231 36.567 40.3774 37.51 38.1009C38.4529 35.8245 38.6996 33.3195 38.2189 30.9028C37.7382 28.4862 36.5517 26.2663 34.8093 24.524C33.067 22.7816 30.8472 21.5951 28.4305 21.1144C26.0138 20.6337 23.5088 20.8804 21.2324 21.8233C18.9559 22.7663 17.0102 24.3631 15.6412 26.4119C14.2723 28.4606 13.5416 30.8693 13.5416 33.3333C13.5474 36.6357 14.8618 39.8012 17.1969 42.1364C19.5321 44.4715 22.6976 45.7859 26 45.7917ZM26 24.125C27.8212 24.125 29.6015 24.6651 31.1159 25.6769C32.6302 26.6887 33.8104 28.1269 34.5074 29.8095C35.2043 31.4921 35.3867 33.3436 35.0314 35.1298C34.6761 36.916 33.7991 38.5568 32.5113 39.8446C31.2234 41.1324 29.5827 42.0094 27.7964 42.3647C26.0102 42.72 24.1587 42.5377 22.4761 41.8407C20.7935 41.1438 19.3554 39.9635 18.3435 38.4492C17.3317 36.9349 16.7916 35.1546 16.7916 33.3333C16.7974 30.8929 17.7694 28.554 19.495 26.8284C21.2207 25.1027 23.5595 24.1307 26 24.125Z" fill="#F4B740"/>
<path d="M7.6428 62.6429C7.33926 62.9464 6.92919 63.1194 6.49996 63.125C6.07073 63.1194 5.66065 62.9464 5.35711 62.6429C5.05358 62.3393 4.88057 61.9293 4.87496 61.5C4.8807 56.4737 6.87992 51.6549 10.4341 48.1008C13.9882 44.5467 18.807 42.5474 23.8333 42.5417H28.1666L23.8333 45.5C19.6689 45.5057 15.6768 47.4542 12.7322 50.3989C9.78751 53.3435 8.13069 57.3357 8.12496 61.5C8.11935 61.9293 7.94634 62.3393 7.6428 62.6429Z" fill="#F4B740"/>
<path d="M74 45.7917C71.536 45.7917 69.1273 45.061 67.0785 43.6921C65.0298 42.3231 63.433 40.3774 62.49 38.1009C61.5471 35.8245 61.3004 33.3195 61.7811 30.9028C62.2618 28.4862 63.4483 26.2663 65.1907 24.524C66.933 22.7816 69.1528 21.5951 71.5695 21.1144C73.9862 20.6337 76.4912 20.8804 78.7676 21.8233C81.0441 22.7663 82.9898 24.3631 84.3588 26.4119C85.7277 28.4606 86.4584 30.8693 86.4584 33.3333C86.4526 36.6357 85.1382 39.8012 82.8031 42.1364C80.4679 44.4715 77.3024 45.7859 74 45.7917ZM74 24.125C72.1788 24.125 70.3985 24.6651 68.8841 25.6769C67.3698 26.6887 66.1896 28.1269 65.4926 29.8095C64.7957 31.4921 64.6133 33.3436 64.9686 35.1298C65.3239 36.916 66.2009 38.5568 67.4887 39.8446C68.7766 41.1324 70.4173 42.0094 72.2036 42.3647C73.9898 42.72 75.8413 42.5377 77.5239 41.8407C79.2065 41.1438 80.6446 39.9635 81.6565 38.4492C82.6683 36.9349 83.2084 35.1546 83.2084 33.3333C83.2026 30.8929 82.2306 28.554 80.505 26.8284C78.7793 25.1027 76.4405 24.1307 74 24.125Z" fill="#F4B740"/>
<path d="M92.3572 62.6429C92.6607 62.9464 93.0708 63.1194 93.5 63.125C93.9293 63.1194 94.3393 62.9464 94.6429 62.6429C94.9464 62.3393 95.1194 61.9293 95.125 61.5C95.1193 56.4737 93.1201 51.6549 89.5659 48.1008C86.0118 44.5467 81.193 42.5474 76.1667 42.5417H71.8334L76.1667 45.5C80.3311 45.5057 84.3232 47.4542 87.2678 50.3989C90.2125 53.3435 91.8693 57.3357 91.875 61.5C91.8807 61.9293 92.0537 62.3393 92.3572 62.6429Z" fill="#F4B740"/>
</svg>
