<svg width="72" height="72" viewBox="0 0 72 72" fill="none" xmlns="http://www.w3.org/2000/svg">
<path d="M36 55.3801C35.406 55.3672 34.8385 55.1316 34.41 54.7201L17.31 37.5901C16.9348 37.1807 16.7266 36.6455 16.7266 36.0901C16.7266 35.5347 16.9348 34.9995 17.31 34.5901L42.48 9.00009C42.9016 8.57801 43.4735 8.34061 44.07 8.34009H61.32C61.9116 8.34004 62.4794 8.57297 62.9005 8.98846C63.3216 9.40395 63.5621 9.96857 63.57 10.5601L63.75 27.6001C63.7509 28.2057 63.5139 28.7875 63.09 29.2201L37.56 54.7501C37.141 55.1539 36.5819 55.3797 36 55.3801V55.3801ZM22.05 36.0001L36 49.9201L59.28 26.6701L59.1 12.8101L45 12.7501L22.05 36.0001Z" fill="#F4B740"/>
<path d="M44.37 63.7501C44.0744 63.7515 43.7815 63.6939 43.5084 63.5805C43.2354 63.4672 42.9877 63.3005 42.78 63.0901L9 29.2201C8.72583 28.7973 8.60156 28.2946 8.64713 27.7927C8.69269 27.2908 8.90544 26.8187 9.25128 26.4521C9.59711 26.0855 10.056 25.8456 10.5544 25.7709C11.0528 25.6963 11.5619 25.791 12 26.0401L45.96 60.0001C46.3813 60.422 46.618 60.9939 46.618 61.5901C46.618 62.1864 46.3813 62.7583 45.96 63.1801C45.7459 63.3757 45.4951 63.5268 45.2222 63.6246C44.9492 63.7225 44.6596 63.7651 44.37 63.7501V63.7501Z" fill="#F4B740"/>
<path d="M21 63.5703C20.6862 63.6025 20.3692 63.5685 20.0694 63.4703C19.7696 63.3721 19.4939 63.2119 19.26 63.0003L9 52.6503C8.78651 52.4324 8.61827 52.1745 8.50499 51.8913C8.39171 51.6081 8.33563 51.3052 8.34 51.0003C8.34 49.7703 8.34 49.7403 20.67 37.7403C21.0997 37.3225 21.6776 37.0926 22.2768 37.1011C22.876 37.1095 23.4473 37.3556 23.865 37.7853C24.2827 38.2149 24.5127 38.7929 24.5042 39.3921C24.4958 39.9913 24.2497 40.5625 23.82 40.9803C19.98 44.7303 15.78 48.8703 13.71 51.0003L21 58.1403L30.93 48.0003C31.1368 47.788 31.3841 47.6193 31.6572 47.5041C31.9302 47.3889 32.2236 47.3296 32.52 47.3296C32.8164 47.3296 33.1098 47.3889 33.3828 47.5041C33.6559 47.6193 33.9032 47.788 34.11 48.0003C34.5314 48.4221 34.768 48.994 34.768 49.5903C34.768 50.1865 34.5314 50.7584 34.11 51.1803L22.44 63.0003C22.0374 63.3462 21.5303 63.5469 21 63.5703Z" fill="#F4B740"/>
<path d="M36 38.25C35.7044 38.2514 35.4115 38.1937 35.1384 38.0804C34.8654 37.967 34.6177 37.8003 34.41 37.59C33.9887 37.1681 33.752 36.5962 33.752 36C33.752 35.4037 33.9887 34.8319 34.41 34.41L46.41 22.41C46.616 22.1889 46.8644 22.0116 47.1404 21.8886C47.4164 21.7657 47.7143 21.6995 48.0164 21.6942C48.3185 21.6889 48.6186 21.7444 48.8988 21.8576C49.179 21.9708 49.4335 22.1392 49.6471 22.3529C49.8608 22.5665 50.0292 22.821 50.1424 23.1012C50.2555 23.3813 50.3111 23.6814 50.3058 23.9835C50.3004 24.2856 50.2343 24.5836 50.1113 24.8596C49.9884 25.1356 49.8111 25.384 49.59 25.59L37.59 37.59C37.3823 37.8003 37.1346 37.967 36.8616 38.0804C36.5885 38.1937 36.2956 38.2514 36 38.25V38.25Z" fill="#F4B740"/>
</svg>
