<svg width="24" height="24" viewBox="0 0 24 24" fill="none" xmlns="http://www.w3.org/2000/svg">
<path d="M12 15.4898H6.36002C6.26116 15.4912 6.16303 15.4727 6.07143 15.4355C5.97982 15.3983 5.89661 15.3431 5.8267 15.2732C5.75678 15.2032 5.70159 15.12 5.66437 15.0284C5.62716 14.9368 5.60868 14.8387 5.61002 14.7398V9.25983C5.60868 9.16097 5.62716 9.06284 5.66437 8.97124C5.70159 8.87964 5.75678 8.79642 5.8267 8.72651C5.89661 8.65659 5.97982 8.6014 6.07143 8.56418C6.16303 8.52697 6.26116 8.50849 6.36002 8.50983H12C12.1989 8.50983 12.3897 8.58885 12.5304 8.7295C12.671 8.87016 12.75 9.06092 12.75 9.25983V14.7398C12.75 14.9387 12.671 15.1295 12.5304 15.2702C12.3897 15.4108 12.1989 15.4898 12 15.4898V15.4898ZM7.11002 13.9998H11.25V9.99983H7.11002V13.9998Z" fill="#F4B740"/>
<path d="M17.64 15.4898H12C11.8011 15.4898 11.6103 15.4108 11.4697 15.2702C11.329 15.1295 11.25 14.9387 11.25 14.7398V9.25983C11.25 9.06092 11.329 8.87016 11.4697 8.7295C11.6103 8.58885 11.8011 8.50983 12 8.50983H17.64C17.7389 8.50849 17.837 8.52697 17.9286 8.56418C18.0202 8.6014 18.1034 8.65659 18.1733 8.72651C18.2432 8.79642 18.2984 8.87964 18.3356 8.97124C18.3729 9.06284 18.3913 9.16097 18.39 9.25983V14.7398C18.3913 14.8387 18.3729 14.9368 18.3356 15.0284C18.2984 15.12 18.2432 15.2032 18.1733 15.2732C18.1034 15.3431 18.0202 15.3983 17.9286 15.4355C17.837 15.4727 17.7389 15.4912 17.64 15.4898V15.4898ZM12.75 13.9998H16.89V9.99983H12.75V13.9998Z" fill="#F4B740"/>
<path d="M17.6401 9.99995H12.0001C11.8019 9.99736 11.6127 9.91751 11.4726 9.77741C11.3325 9.63732 11.2526 9.44805 11.2501 9.24995V3.77995C11.246 3.67896 11.2624 3.5782 11.2983 3.48371C11.3342 3.38923 11.3888 3.30297 11.4588 3.23011C11.5289 3.15726 11.6129 3.09932 11.7059 3.05977C11.7989 3.02021 11.899 2.99987 12.0001 2.99995H17.6401C17.7389 2.9986 17.837 3.01708 17.9286 3.0543C18.0202 3.09151 18.1035 3.14671 18.1734 3.21662C18.2433 3.28653 18.2985 3.36975 18.3357 3.46135C18.3729 3.55295 18.3914 3.65108 18.39 3.74995V9.25995C18.3874 9.45712 18.3072 9.64533 18.1669 9.78382C18.0265 9.92232 17.8372 9.99996 17.6401 9.99995ZM12.7501 8.49995H16.8901V4.49995H12.7501V8.49995Z" fill="#F4B740"/>
<path d="M12 21.0001H6.36005C6.16113 21.0001 5.97037 20.9211 5.82972 20.7805C5.68906 20.6398 5.61005 20.449 5.61005 20.2501V14.7401C5.61268 14.5429 5.69285 14.3547 5.83322 14.2162C5.97359 14.0777 6.16285 14.0001 6.36005 14.0001H12C12.1982 14.0027 12.3874 14.0826 12.5275 14.2227C12.6676 14.3628 12.7475 14.552 12.75 14.7501V20.2401C12.7501 20.44 12.6714 20.6318 12.531 20.774C12.3906 20.9163 12.1999 20.9975 12 21.0001ZM7.11005 19.5001H11.25V15.5001H7.11005V19.5001Z" fill="#F4B740"/>
</svg>
