<svg width="25" height="24" viewBox="0 0 25 24" fill="none" xmlns="http://www.w3.org/2000/svg">
<g clip-path="url(#clip0)">
<path d="M12.2761 24C18.9543 24 24.3681 18.6274 24.3681 12C24.3681 5.37258 18.9543 0 12.2761 0C5.59786 0 0.184082 5.37258 0.184082 12C0.184082 18.6274 5.59786 24 12.2761 24Z" fill="#2DAAE1"/>
<path d="M20.0293 7.22651C19.459 7.47768 18.8464 7.64747 18.2023 7.72379C18.8596 7.33315 19.3632 6.71412 19.601 5.97737C18.9765 6.34543 18.2932 6.60455 17.5805 6.74346C17.0005 6.12997 16.1735 5.74695 15.2586 5.74695C13.5023 5.74695 12.078 7.15985 12.078 8.90374C12.078 9.15083 12.1061 9.39189 12.16 9.62333C9.51621 9.49148 7.17234 8.23472 5.60346 6.32507C5.32952 6.79146 5.17271 7.33372 5.17271 7.91229C5.17271 9.00736 5.73436 9.97356 6.58778 10.5395C6.08257 10.524 5.58845 10.3887 5.14672 10.1449V10.1847C5.14672 11.7144 6.24304 12.9899 7.69835 13.2799C7.43101 13.3526 7.15046 13.3906 6.86021 13.3906C6.65499 13.3906 6.4559 13.3713 6.2614 13.335C6.6662 14.5888 7.84099 15.5014 9.23257 15.5272C8.14388 16.3741 6.77209 16.879 5.28218 16.879C5.02556 16.879 4.77193 16.8638 4.52295 16.834C5.93091 17.7299 7.60264 18.2529 9.39911 18.2529C15.2499 18.2529 18.4497 13.4427 18.4497 9.27116C18.4497 9.13421 18.4467 8.99828 18.44 8.86283C19.0635 8.41533 19.6016 7.86125 20.0293 7.22651Z" fill="white"/>
</g>
<defs>
<clipPath id="clip0">
<rect width="24.184" height="24" fill="white" transform="translate(0.184082)"/>
</clipPath>
</defs>
</svg>
