<svg width="60" height="48" viewBox="0 0 60 48" fill="none" xmlns="http://www.w3.org/2000/svg">
<path d="M59.0633 5.67881C56.8908 6.64282 54.5574 7.29451 52.1041 7.58743C54.6079 6.08809 56.5261 3.71216 57.4318 0.884406C55.0533 2.29708 52.4503 3.29159 49.7358 3.82476C47.5268 1.4701 44.3767 0 40.8916 0C34.2022 0 28.777 5.42295 28.777 12.1163C28.777 13.0646 28.8839 13.9899 29.0892 14.8782C19.0192 14.3721 10.0915 9.54845 4.11565 2.21891C3.0722 4.00899 2.47493 6.09028 2.47493 8.31091C2.47493 12.514 4.61424 16.2224 7.86488 18.3947C5.94055 18.3351 4.05846 17.8157 2.37593 16.8799V17.033C2.37593 22.904 6.5518 27.7994 12.095 28.9128C11.0767 29.1918 10.0081 29.3376 8.90255 29.3376C8.12089 29.3376 7.36254 29.2636 6.6217 29.1242C8.16359 33.9363 12.6383 37.4391 17.9388 37.5381C13.792 40.7887 8.56693 42.7264 2.89187 42.7264C1.91441 42.7264 0.948371 42.6681 0 42.5537C5.36289 45.9925 11.7305 48 18.5731 48C40.8586 48 53.0467 29.5374 53.0467 13.5265C53.0467 13.0008 53.0351 12.4791 53.0098 11.9593C55.3844 10.2417 57.4342 8.11501 59.0633 5.67881Z" fill="#FCFCFC" fill-opacity="0.7"/>
</svg>
