<svg width="72" height="72" viewBox="0 0 72 72" fill="none" xmlns="http://www.w3.org/2000/svg">
<path d="M36 41.25C32.5883 41.25 29.2532 40.2383 26.4164 38.3429C23.5797 36.4474 21.3687 33.7533 20.0631 30.6013C18.7575 27.4493 18.4159 23.9809 19.0815 20.6347C19.7471 17.2885 21.39 14.2149 23.8024 11.8024C26.2149 9.38996 29.2885 7.74706 32.6347 7.08146C35.9809 6.41587 39.4493 6.75747 42.6013 8.06309C45.7533 9.3687 48.4474 11.5797 50.3429 14.4164C52.2383 17.2532 53.25 20.5883 53.25 24C53.2421 28.5726 51.4221 32.9556 48.1888 36.1888C44.9556 39.4221 40.5726 41.2421 36 41.25V41.25ZM36 11.25C33.4783 11.25 31.0132 11.9978 28.9165 13.3988C26.8198 14.7998 25.1856 16.791 24.2205 19.1208C23.2555 21.4506 23.003 24.0142 23.495 26.4874C23.987 28.9607 25.2013 31.2325 26.9844 33.0156C28.7675 34.7987 31.0393 36.0131 33.5126 36.505C35.9859 36.997 38.5495 36.7445 40.8792 35.7795C43.209 34.8145 45.2003 33.1803 46.6012 31.0835C48.0022 28.9868 48.75 26.5217 48.75 24C48.7421 20.6209 47.3962 17.3825 45.0069 14.9931C42.6175 12.6038 39.3791 11.2579 36 11.25V11.25Z" fill="#F4B740"/>
<path d="M63 65.25C62.4057 65.2422 61.8379 65.0027 61.4176 64.5824C60.9973 64.1621 60.7578 63.5943 60.75 63C60.7421 57.234 58.448 51.7064 54.3708 47.6292C50.2936 43.552 44.766 41.2579 39 41.25H33C27.234 41.2579 21.7064 43.552 17.6292 47.6292C13.552 51.7064 11.2579 57.234 11.25 63C11.25 63.5967 11.0129 64.169 10.591 64.591C10.169 65.0129 9.59674 65.25 9 65.25C8.40326 65.25 7.83097 65.0129 7.40901 64.591C6.98705 64.169 6.75 63.5967 6.75 63C6.75794 56.0405 9.52611 49.3683 14.4472 44.4472C19.3683 39.5261 26.0405 36.7579 33 36.75H39C45.9595 36.7579 52.6317 39.5261 57.5528 44.4472C62.4739 49.3683 65.2421 56.0405 65.25 63C65.2422 63.5943 65.0027 64.1621 64.5824 64.5824C64.1621 65.0027 63.5943 65.2422 63 65.25Z" fill="#F4B740"/>
</svg>
