<svg width="54" height="48" viewBox="0 0 54 48" fill="none" xmlns="http://www.w3.org/2000/svg">
<path d="M51.5301 11.6328C50.9412 9.41559 49.2063 7.66941 47.0035 7.07681C43.0107 6 26.9999 6 26.9999 6C26.9999 6 10.9893 6 6.9964 7.07681C4.79356 7.6695 3.05862 9.41559 2.46978 11.6328C1.3999 15.6516 1.3999 24.0364 1.3999 24.0364C1.3999 24.0364 1.3999 32.4212 2.46978 36.44C3.05862 38.6572 4.79356 40.3306 6.9964 40.9232C10.9893 42 26.9999 42 26.9999 42C26.9999 42 43.0106 42 47.0035 40.9232C49.2063 40.3306 50.9412 38.6572 51.5301 36.44C52.6 32.4212 52.6 24.0364 52.6 24.0364C52.6 24.0364 52.6 15.6516 51.5301 11.6328ZM21.7635 31.6492V16.4236L35.1453 24.0366L21.7635 31.6492Z" fill="#FCFCFC" fill-opacity="0.7"/>
</svg>
