<?xml version="1.0" encoding="UTF-8"?>
<svg xmlns="http://www.w3.org/2000/svg" xmlns:xlink="http://www.w3.org/1999/xlink" width="450pt" height="263.16pt" viewBox="0 0 450 263.16" version="1.1">
<g id="surface1">
<path style=" stroke:none;fill-rule:evenodd;fill:rgb(10.198975%,9.799194%,9.399414%);fill-opacity:1;" d="M 41.5625 238.726563 L 408.261719 238.726563 L 408.261719 24.429688 L 41.5625 24.429688 Z M 24.707031 -0.00390625 L 425.121094 -0.00390625 C 429.898438 -0.00390625 433.808594 3.910156 433.808594 8.683594 L 433.808594 47.023438 L 450 47.023438 L 450 70.195313 L 433.808594 70.195313 L 433.808594 190 L 450 190 L 450 214.363281 L 433.808594 214.363281 L 433.808594 254.472656 C 433.808594 259.246094 429.894531 263.160156 425.121094 263.160156 L 24.707031 263.160156 C 19.929688 263.160156 16.015625 259.25 16.015625 254.472656 L 16.015625 215.878906 L 0 215.878906 L 0 191.515625 L 16.015625 191.515625 L 16.015625 73.648438 L 0 73.648438 L 0 47.273438 L 16.015625 47.273438 L 16.015625 8.683594 C 16.015625 3.90625 19.925781 -0.00390625 24.707031 -0.00390625 "/>
<path style=" stroke:none;fill-rule:evenodd;fill:rgb(10.198975%,9.799194%,9.399414%);fill-opacity:1;" d="M 332.519531 48.929688 L 369.460938 48.929688 C 377.125 48.929688 383.394531 55.199219 383.394531 62.863281 L 383.394531 86.457031 C 383.523438 90.394531 383.835938 90.523438 380.363281 90.5 L 365.214844 90.5 C 360.417969 90.585938 361.109375 90.515625 361.046875 85.90625 L 361.046875 74.238281 L 345.480469 74.238281 L 345.480469 190.265625 L 359.195313 190.265625 L 359.195313 135.917969 L 356.835938 135.917969 C 354.175781 135.917969 354.230469 136.339844 354.230469 133.664063 L 354.230469 118.117188 C 354.230469 115.082031 354.023438 115.441406 357.054688 115.445313 C 364.917969 115.457031 372.660156 115.511719 380.492188 115.523438 C 383.664063 115.527344 383.394531 115.191406 383.394531 118.371094 L 383.394531 199.203125 C 383.394531 206.867188 377.125 213.140625 369.460938 213.140625 L 332.519531 213.140625 C 324.855469 213.140625 318.585938 206.871094 318.585938 199.203125 L 318.585938 62.863281 C 318.585938 55.199219 324.855469 48.929688 332.519531 48.929688 "/>
<path style=" stroke:none;fill-rule:evenodd;fill:rgb(10.198975%,9.799194%,9.399414%);fill-opacity:1;" d="M 265.957031 189.296875 L 277.148438 189.296875 L 277.148438 140.644531 L 265.957031 140.644531 Z M 265.957031 114.429688 L 276.054688 114.429688 L 276.054688 73.820313 L 265.957031 73.820313 Z M 284.382813 48.929688 L 287.375 48.929688 C 295.039063 48.929688 301.308594 55.203125 301.308594 62.863281 L 301.308594 121.953125 L 295.644531 128.121094 L 303.035156 135.472656 L 303.035156 199.203125 C 303.035156 206.867188 296.761719 213.140625 289.097656 213.140625 L 254.179688 213.140625 C 253.675781 213.140625 253.179688 213.109375 252.6875 213.058594 L 240.171875 213.058594 L 240.171875 139.683594 L 235.566406 135.078125 L 235.566406 119.0625 L 240.171875 114.457031 L 240.171875 48.929688 L 283.308594 48.929688 C 283.667969 48.929688 284.023438 48.929688 284.382813 48.929688 "/>
<path style=" stroke:none;fill-rule:evenodd;fill:rgb(10.198975%,9.799194%,9.399414%);fill-opacity:1;" d="M 223.515625 51.65625 L 223.515625 199.203125 C 223.515625 206.867188 217.242188 213.140625 209.578125 213.140625 L 167.957031 213.140625 C 160.296875 213.140625 154.019531 206.867188 154.019531 199.203125 L 154.019531 51.65625 L 180.1875 51.65625 L 180.1875 189.066406 L 197.347656 189.066406 L 197.347656 51.65625 "/>
<path style=" stroke:none;fill-rule:evenodd;fill:rgb(10.198975%,9.799194%,9.399414%);fill-opacity:1;" d="M 99.457031 73.203125 L 111.820313 73.203125 L 111.820313 123.863281 L 99.457031 123.863281 Z M 137.988281 133.382813 L 137.988281 63.066406 C 137.988281 55.402344 131.714844 49.128906 124.050781 49.128906 L 73.246094 49.128906 C 73.246094 67.140625 73.253906 85.175781 73.257813 103.210938 L 73.253906 103.210938 L 73.25 121.085938 L 68.953125 125.382813 L 68.953125 141.398438 L 73.246094 145.691406 L 73.246094 147.941406 L 73.277344 147.941406 C 73.285156 169.675781 73.289063 191.414063 73.289063 213.140625 L 99.457031 213.140625 L 99.457031 147.941406 L 124.050781 147.941406 C 131.714844 147.941406 137.988281 141.664063 137.988281 134.003906 "/>
</g>
</svg>
