<?xml version="1.0" encoding="UTF-8" standalone="no"?>
<!DOCTYPE svg PUBLIC "-//W3C//DTD SVG 1.1//EN" "http://www.w3.org/Graphics/SVG/1.1/DTD/svg11.dtd">
<svg width="100%" height="100%" viewBox="0 0 1163 259" version="1.1" xmlns="http://www.w3.org/2000/svg" xmlns:xlink="http://www.w3.org/1999/xlink" xml:space="preserve" xmlns:serif="http://www.serif.com/" style="fill-rule:evenodd;clip-rule:evenodd;stroke-linejoin:round;stroke-miterlimit:2;">
    <g transform="matrix(4.16667,0,0,4.16667,-196.967,-463.317)">
        <path d="M220.101,132.419C221.195,132.419 222.014,133.306 221.931,134.399C221.848,135.493 220.895,136.379 219.8,136.379C218.707,136.379 217.888,135.493 217.971,134.399C218.054,133.306 219.008,132.419 220.101,132.419ZM268.642,134.714L275.781,138.323C276.245,138.557 276.499,139.014 276.462,139.548C276.426,140.081 276.11,140.538 275.615,140.772L267.983,144.38C267.534,144.592 267.061,144.568 266.668,144.312C266.275,144.055 266.073,143.639 266.106,143.155C266.27,140.75 266.433,138.344 266.597,135.939C266.63,135.454 266.889,135.039 267.317,134.783C267.745,134.526 268.222,134.501 268.642,134.714ZM176.3,172.947C177.589,171.659 199.189,159.514 236.523,163.5C273.857,167.486 287.761,164.645 299.295,155.623C299.371,155.472 299.383,155.313 299.331,155.15L290.864,128.581L288.548,151.185C288.516,151.494 288.44,151.794 288.318,152.08C287.697,153.536 286.017,154.42 284.603,154.919C282.773,155.565 280.686,155.842 278.72,155.883L279.15,151.68C279.18,151.392 279.019,151.13 278.75,151.025C278.48,150.921 278.185,151.006 278.012,151.238C276.822,152.838 275.286,154.059 273.515,154.964C271.551,155.968 269.417,156.385 267.222,156.385C264.641,156.385 262.243,155.741 260.102,154.29C257.921,152.811 256.441,150.744 255.483,148.309C254.346,145.423 254.155,142.257 254.469,139.197C254.799,135.976 255.683,132.866 257.361,130.081C258.846,127.615 260.783,125.552 263.272,124.089C265.639,122.699 268.193,122.003 270.938,122.003C273.009,122.003 275.082,122.373 276.899,123.41C278.438,124.289 279.689,125.475 280.503,127.062C280.633,127.315 280.903,127.448 281.183,127.396C281.463,127.342 281.667,127.121 281.696,126.837L282.14,122.5L299.436,122.5L305.101,143.705C305.171,143.967 305.387,144.148 305.657,144.172C305.927,144.196 306.171,144.056 306.286,143.811L313.737,127.931C313.739,127.928 313.741,127.924 313.743,127.92C314.679,125.816 315.978,123.551 318.233,122.666C319.431,122.197 320.777,122.136 322.05,122.164C323.48,122.195 324.923,122.328 326.358,122.433L309.663,154.069C299.858,175.441 260.684,174.039 240.31,172.18C203.58,168.829 202.306,167.689 176.3,172.947ZM254.23,111.196L244.884,111.196L240.305,155.874C243.622,155.747 249.627,154.708 250.144,151.078L254.23,111.196ZM278.748,139.259C278.486,141.807 277.592,144.15 275.704,145.928C274.011,147.522 272,148.398 269.662,148.398C267.408,148.398 265.503,147.572 264.045,145.844C262.433,143.935 262.092,141.483 262.34,139.067C262.6,136.529 263.489,134.188 265.383,132.426C267.083,130.846 269.093,129.99 271.419,129.99C273.663,129.99 275.571,130.8 277.037,132.509C278.658,134.402 278.994,136.853 278.748,139.259ZM189.886,136.626C190.697,136.632 191.304,137.295 191.242,138.107C191.181,138.919 190.473,139.571 189.662,139.565L187.337,139.541L187.155,141.86C187.093,142.671 186.386,143.324 185.575,143.317C184.764,143.311 184.156,142.648 184.218,141.837L184.401,139.51L182.083,139.486C181.272,139.48 180.665,138.817 180.726,138.005C180.788,137.193 181.496,136.541 182.306,136.547L184.632,136.572L184.814,134.252C184.875,133.441 185.583,132.788 186.394,132.795C187.205,132.801 187.813,133.464 187.751,134.275L187.568,136.602L189.886,136.626ZM222.676,120.243L180.493,120.243C175.216,120.243 168.437,125.354 166.927,133.892L160.203,170.868C160.021,173.25 161.472,172.999 164.587,172.947C170.838,172.844 181.622,160.605 184.045,155.893L219.955,155.893C229.532,155.893 237.967,148.056 238.698,138.478L238.76,137.657C239.491,128.079 232.252,120.243 222.676,120.243ZM180.56,129.743C178.395,130.081 176.619,133.69 176.274,135.591L172.642,155.561C174.02,153.95 175.122,152.472 175.597,151.549C177.266,148.303 180.395,146.393 184.045,146.393L219.955,146.393C224.59,146.393 228.874,142.361 229.226,137.755L229.288,136.934C229.595,132.916 226.721,129.743 222.676,129.743L180.56,129.743ZM217.905,138.142C217.821,139.236 216.868,140.122 215.774,140.122C214.68,140.122 213.861,139.236 213.944,138.142C214.027,137.048 214.981,136.162 216.074,136.162C217.168,136.162 217.988,137.048 217.905,138.142ZM219.533,139.905C220.627,139.905 221.446,140.791 221.363,141.885C221.28,142.978 220.326,143.865 219.233,143.865C218.139,143.865 217.32,142.978 217.403,141.885C217.486,140.791 218.439,139.905 219.533,139.905ZM225.39,138.142C225.307,139.236 224.353,140.122 223.259,140.122C222.166,140.122 221.346,139.236 221.429,138.142C221.512,137.048 222.466,136.162 223.56,136.162C224.654,136.162 225.473,137.048 225.39,138.142Z" style="fill:rgb(255,199,0);"/>
        <path d="M55.711,149.615L58.43,134.02L47.272,134.02L49.989,118.435L67.9,118.435L67.9,118.462L76.72,118.462L71.288,149.615C70.382,154.812 72.522,157.403 77.718,157.403C82.902,157.403 85.959,154.812 86.865,149.615L92.297,118.462L92.302,118.435L144.329,118.435C156.017,118.435 160.848,124.286 158.81,135.975C156.772,147.662 149.903,153.5 138.215,153.5L122.631,153.5C121.341,153.5 120.576,154.151 120.349,155.455L120.01,157.396L158.55,157.396L156.142,170.642C156.134,170.687 156.129,170.726 156.125,170.772C156.066,171.544 156.133,172.335 156.543,172.98L101.708,172.98L104.764,155.455C106.803,143.766 113.66,137.916 125.348,137.916L140.933,137.916C142.236,137.916 143.001,137.264 143.226,135.975C143.453,134.671 142.915,134.02 141.612,134.02L105.161,134.02L102.442,149.615C99.726,165.192 90.579,172.98 75.002,172.98C59.425,172.98 52.995,165.192 55.711,149.615Z" style="fill:white;"/>
    </g>
</svg>
