<svg width="1664" height="778" viewBox="0 0 1664 778" fill="none" xmlns="http://www.w3.org/2000/svg">
<g opacity="0.12">
<path fill-rule="evenodd" clip-rule="evenodd" d="M463.837 30.339C463.729 5.92126 420.655 -21.5372 402.255 -35.6936C365.874 -63.6932 328.036 -89.5494 290.549 -115.819C253.061 -142.088 215.473 -168.286 179.726 -197.126C156.516 -215.847 129.244 -236.932 113.502 -263.664C79.9689 -320.631 185.697 -312.172 213.084 -313.418C282.756 -316.601 362.669 -315.148 427.975 -344.814C466.96 -362.524 482.506 -392.226 474.133 -435.514C471.434 -449.592 463.445 -465.792 470.213 -479.507C477.439 -494.155 494.064 -502.607 507.862 -508.276C558.189 -528.926 616.053 -531.319 669.302 -533.911C726.72 -536.76 784.679 -535.926 841.693 -536.147C865.868 -536.24 891.116 -545.404 914.137 -552.853C944.317 -562.616 974.14 -573.582 1004.07 -584.185C1069.92 -607.456 1137.77 -631.967 1207.43 -637.877C1251.06 -641.58 1298.74 -636.574 1332.63 -604.366C1349.65 -588.194 1358.55 -564.154 1368.39 -542.798C1380.3 -516.999 1391.74 -490.95 1404.41 -465.557C1445.26 -383.773 1503.56 -303.854 1598.21 -299.838C1612.52 -299.233 1626.59 -301.205 1640.84 -301.576C1649.91 -301.804 1657.99 -299.489 1661.36 -289.47C1669.84 -264.34 1643.18 -224.669 1632.25 -204.731C1608.32 -161.086 1581.33 -119.4 1556.05 -76.6319C1539.32 -48.3475 1510.37 -9.69501 1510.07 24.6707C1509.8 55.2908 1548.39 77.4227 1569.4 92.5049C1589.09 106.626 1624.76 126.386 1626.92 155.112C1627.97 169.041 1619.27 180.584 1610.18 189.542C1594.25 205.208 1575.89 216.26 1561.56 234.134C1538.06 263.458 1518.43 303.805 1521.62 343.319C1523.83 370.699 1538.64 388.63 1557.47 405.77C1565.38 412.976 1571.81 418.075 1572.22 429.775C1572.9 448.353 1566 468.014 1560.32 485.24C1540 546.886 1511.13 606.495 1479.03 662.153C1462.98 689.967 1445.65 717.696 1424.37 741.423C1410.44 757.004 1391.65 775.547 1370.4 775.525C1345.79 775.525 1319.75 766.154 1295.83 759.147C1251.16 746.052 1207.03 730.913 1163.07 715.382C1061.41 679.449 960.708 640.607 860.963 598.855C790.704 569.395 718.954 539.893 652.9 500.728C640.017 493.037 627.858 484.069 616.586 473.946C604.542 463.314 589.597 458.557 574.443 455.011C480.387 433 377.344 449.898 282.897 460.494C258.924 463.179 234.952 465.878 210.911 467.758C190.245 469.374 165.503 474.01 145.417 467.046C105.838 453.338 140.437 402.815 155.065 382.228C206.566 309.744 273.013 248.418 334.601 185.811C363.884 155.995 393.389 126.258 421.08 94.7551C435.498 78.3769 463.931 51.7446 463.837 30.339Z" stroke="white"/>
<path fill-rule="evenodd" clip-rule="evenodd" d="M481.584 26.2226C465.799 0.385 438.103 -18.7121 415.113 -36.6846C382.029 -62.5578 347.905 -86.9932 314.295 -112.133C282.514 -135.907 250.666 -159.951 221.235 -186.949C203.288 -203.412 180.771 -223.1 172.271 -247.45C153.831 -300.228 253.029 -292.221 277.518 -293.602C338.399 -297.018 407.423 -297.801 463.746 -325.589C498.916 -342.942 513.365 -371.72 505.864 -411.672C503.271 -425.495 498.599 -437.296 504.514 -451.048C511.353 -466.963 527.085 -476.885 541.507 -483.889C586.683 -505.833 640.083 -510.496 689.054 -514.375C739.645 -518.382 792.357 -521.208 841.321 -518.275C860.901 -517.108 883.439 -523.735 902.816 -528.817C932.632 -536.646 962.145 -545.679 991.812 -554.078C1052.11 -571.161 1113.97 -587.617 1176.69 -589.489C1221.97 -590.841 1269.19 -583.51 1306.87 -555.174C1345.05 -526.439 1361.99 -481.896 1383.16 -439.552C1419.73 -366.346 1469.12 -277.338 1553.72 -261.871C1566.55 -259.522 1578.88 -260.796 1591.69 -260.219C1598.28 -259.927 1605.78 -259.002 1609.12 -252.148C1617.8 -234.353 1594.03 -201.818 1586.03 -188.187C1563.92 -150.52 1539.07 -114.696 1515.9 -77.7543C1497.5 -48.4218 1474.18 -15.8294 1467.07 18.9411C1458.43 61.1355 1514.85 91.1584 1534.7 120.868C1569.1 172.387 1503.92 201.741 1471.79 226.304C1434.89 254.505 1404.44 305.952 1437.51 349.585C1450.17 366.269 1465.74 376.212 1471.39 397.986C1480.22 432.037 1473.54 470.95 1466.37 504.61C1455.57 555.211 1438.47 605.263 1415.23 650.995C1398.58 683.737 1370.96 735.078 1330.51 731.227C1303.28 728.658 1275.6 719.269 1249.08 710.97C1209.38 698.549 1170.18 684.392 1131.19 669.687C1041.18 635.834 952.165 598.509 864.898 557.453C805.354 529.43 639.26 414.912 626.762 410.826C589.499 398.655 547.131 400.797 508.713 402.683C457.609 405.189 406.761 411.68 355.953 417.695C331.769 420.542 307.462 424.023 283.149 425.425C265.844 426.421 243.117 427.275 227.959 416.663C198.373 395.957 231.335 348.581 244.967 328.537C286.727 267.089 339.553 213.876 389.085 159.468C413.391 132.755 438.069 106.084 460.134 77.2288C469.033 65.577 491.341 42.1808 481.584 26.2226Z" stroke="white"/>
<path fill-rule="evenodd" clip-rule="evenodd" d="M503.423 12.9717C460.313 -38.7323 400.811 -77.1863 349.458 -120.368C323.683 -142.048 297.746 -164.318 275.516 -190.142C263.952 -203.57 249.512 -220.551 247.284 -239.269C241.33 -289.342 330.737 -282.571 357.498 -284.472C409.236 -288.16 467.684 -290.958 514.623 -316.511C543.3 -332.132 557.423 -357.771 552.063 -391.469C549.687 -406.42 545.987 -419.122 552.063 -433.803C558.22 -448.676 571.046 -459.171 584.035 -467.038C621.36 -489.665 667.745 -496.899 709.769 -502.288C759.067 -508.566 808.736 -511.017 858.375 -509.622C901.85 -508.418 945.116 -521.953 987.565 -530.874C1043.8 -542.686 1101.05 -553.003 1158.6 -551.443C1204.04 -550.205 1249.85 -540.472 1288.7 -514.606C1328.18 -488.262 1351.91 -448.833 1373.31 -406.285C1405.66 -341.965 1445.98 -255.772 1516.95 -231.344C1527.27 -227.784 1536.89 -227.393 1547.54 -226.773C1552.71 -226.474 1559.39 -226.382 1561.95 -220.693C1568.12 -206.994 1545.31 -180.438 1538.94 -171.182C1518.62 -141.635 1496.6 -113.419 1475.77 -84.2634C1456.33 -57.0444 1435.15 -28.6791 1423.07 3.21762C1403.85 54.0174 1465.3 83.7212 1463.58 132.129C1462.51 162.181 1435.23 183.733 1413.62 198.642C1387.02 216.975 1348.73 229.029 1335.41 262.485C1325.5 287.404 1341.06 301.907 1353.04 320.818C1373.35 352.857 1374.73 396.288 1372.62 433.375C1369.77 483.491 1358.64 534.348 1339.69 580.413C1331.1 601.295 1320.58 623.018 1305.1 639.237C1290.59 654.437 1276.86 658.332 1257.47 655.221C1198.12 645.68 1138.19 619.088 1081.27 595.336C1009.76 565.49 939.236 532.539 870.816 495.466C824.161 470.184 776.454 443.435 735.503 408.505C724.83 399.399 713.9 389.502 706.096 377.491C700.196 368.463 697.692 361.009 687.748 355.854C658.274 340.582 617.276 344.576 585.696 346.164C535.199 348.692 484.946 355.42 434.761 361.479C405.476 365.039 350.308 376.238 326.923 349.375C306.738 326.179 331.095 286.628 343.537 266.195C375.009 214.519 415.494 169.166 453.056 122.467C470.27 101.065 488.16 79.4992 502.377 55.7048C506.009 49.6387 511.828 41.6005 512.827 34.2315C513.948 25.7874 508.716 19.3439 503.423 12.9717Z" stroke="white"/>
<path fill-rule="evenodd" clip-rule="evenodd" d="M507.13 25.0081C467.294 -20.7077 419.302 -58.2651 376.536 -101.045C357.36 -120.227 337.996 -140.348 323.385 -163.748C315.526 -176.331 307.181 -192.171 309.348 -207.811C315.567 -252.7 389.101 -248.646 418.809 -251.275C462.952 -255.137 513.665 -259.027 552.698 -283.232C578.267 -299.085 587.854 -322.499 583.081 -352.696C577.956 -385.088 589.414 -408.601 615.49 -426.671C648.182 -449.308 689.449 -458.535 727.408 -465.09C773.141 -472.95 819.453 -476.435 865.78 -475.5C910.835 -474.588 954.485 -482.554 999.243 -487.734C1058.59 -494.596 1119.83 -497.981 1178.5 -483.915C1229.59 -471.667 1275.73 -444.676 1310.32 -402.936C1346.45 -359.372 1364.33 -304.486 1393.67 -256.291C1411.97 -226.229 1437.48 -186.463 1471.68 -174.778C1483.08 -170.88 1503.86 -176.139 1494.75 -156.965C1489.55 -145.999 1479.8 -136.38 1472.11 -127.416C1459.67 -112.93 1446.82 -98.8436 1434.18 -84.5574C1407.22 -54.104 1378.36 -23.0021 1358.16 13.0589C1332.7 58.4612 1370.54 93.4036 1365.93 139.44C1363.45 164.215 1347.12 183.987 1329.85 199.52C1318.68 209.581 1306.45 218.296 1293.97 226.426C1280.93 234.919 1265.5 241.389 1254.13 252.369C1237.93 267.994 1244.96 286.492 1248 306.692C1253.35 342.192 1254.52 378.252 1251.5 414.056C1247.8 457.94 1239.12 503.079 1220.85 542.959C1213.74 558.485 1204.73 574.945 1191.35 585.355C1177.98 595.765 1164.14 595.052 1148.82 591.917C1103.36 582.654 1057.99 561.1 1014.87 540.672C960.893 515.099 907.979 486.52 857.448 454.007C822.568 431.562 787.573 407.315 758.392 376.883C749.905 368.026 741.83 358.543 735.301 347.954C730.818 340.694 728.414 331.324 721.919 325.866C701.596 308.829 660.794 313.917 636.96 314.907C589.394 316.881 542.577 326.265 495.071 328.545C469.144 329.792 428.538 332.927 409.498 309.635C391.592 287.739 407.81 253.252 418.512 232.154C439.544 190.671 467.8 153.712 493.126 115.15C503.538 99.282 514.948 82.6801 521.693 64.5605C527.689 48.4146 517.338 36.7292 507.13 25.0081Z" stroke="white"/>
<path fill-rule="evenodd" clip-rule="evenodd" d="M516.927 25.7559C485.219 -14.4727 446.994 -50.1832 415.057 -91.0664C396.363 -115.009 364.169 -155.259 378.626 -189.013C394.487 -226.103 449.774 -227.114 481.732 -230.102C519.768 -233.66 564.435 -238.519 596.987 -261.679C607.282 -269 616.052 -278.691 619.769 -291.455C623.75 -305.116 619.398 -317.07 618.832 -330.745C617.644 -359.433 633.876 -382.464 655.357 -398.281C685.715 -420.644 723.677 -431.217 759.534 -438.588C800.158 -446.902 841.457 -451.001 882.838 -450.826C922.385 -450.683 961.514 -451.608 1001.1 -452.676C1052.87 -454.099 1105.37 -451.801 1155.59 -437.293C1205.07 -422.992 1250.04 -396.189 1285.37 -356.765C1319.84 -318.293 1343.1 -271.27 1363.46 -223.371C1375.02 -196.185 1394.54 -155.557 1422.11 -141.825C1434.37 -135.714 1446.4 -136.133 1433.36 -120.238C1416.95 -100.224 1394.83 -84.1648 1375.82 -67.046C1348.39 -42.3424 1320.28 -17.1551 1297.26 12.2159C1282.56 30.9712 1276.01 49.1716 1277.02 73.4553C1277.81 91.9545 1281.35 110.262 1279.56 128.832C1275.36 172.419 1242.82 202.309 1214.05 230.143C1195.55 248.045 1178.65 261.699 1169.12 287.164C1157.85 317.26 1153.13 350.004 1145.6 381.253C1137.33 415.569 1127.77 451.266 1109.72 481.49C1093.65 508.4 1074.1 520.467 1044.85 513.216C999.227 501.918 954.255 474.084 913.75 448.334C872.523 422.136 832.004 392.68 797.84 356.671C779.396 337.225 766.807 314.393 750.427 293.503C729.823 267.277 683.212 277.21 655.512 279.43C609.528 283.115 464.839 310.693 478.19 221.371C483.762 184.088 505.708 149.679 521.758 116.779C528.41 103.125 538.037 86.7392 539.541 71.0931C541.181 54.0526 526.46 37.8657 516.927 25.7559Z" stroke="white"/>
<path fill-rule="evenodd" clip-rule="evenodd" d="M533.669 29.1719C509.438 -7.2834 480.44 -41.724 459.648 -81.098C446.161 -106.597 432.916 -140.668 450.315 -167.648C469.953 -198.095 513.255 -205.193 545.073 -209.072C577.854 -213.066 616.989 -216.426 643.782 -239.512C652.306 -246.866 659.333 -256.782 660.642 -268.657C661.903 -280.047 658.342 -291.437 659.522 -303.033C662.166 -329.074 677.13 -350.53 696.424 -366.091C753.498 -412.128 838.443 -422.365 907.304 -423.568C941.772 -424.166 977.245 -421.027 1011.93 -418.777C1056.95 -415.859 1102.03 -409.594 1144.96 -394.495C1236.24 -362.404 1297.42 -291.23 1340.15 -202.665C1353.6 -174.788 1363.89 -144.626 1384.96 -122.223C1395.83 -110.655 1393.45 -102.348 1382.35 -91.7976C1364.98 -75.3105 1343.8 -62.7102 1324.53 -48.9496C1297.11 -29.3801 1269.11 -9.51868 1244.87 13.9235C1228.16 30.0831 1216.29 45.6519 1212.69 69.8842C1210.12 87.1615 1210.72 104.766 1209.18 122.15C1206.24 155.174 1196.17 187.949 1178.35 215.342C1164.18 237.054 1147.32 256.788 1129.9 275.603C1107.25 300.098 1088.09 324.986 1070.88 354.059C1048.08 392.543 1016.03 463.531 962.307 444.745C903.056 424.015 847.52 371.343 809.505 320.309C796.739 303.174 786.259 282.159 769.042 269.523C743.267 250.637 717.115 251.299 686.457 251.377C640.558 251.484 540.682 261.999 539.603 189.444C539.178 160.698 550.967 133.519 556.611 105.87C562.977 74.9029 550.218 54.0164 533.669 29.1719Z" stroke="white"/>
<path fill-rule="evenodd" clip-rule="evenodd" d="M551.716 32.4223C527.749 -15.0908 474.004 -93.1648 514.881 -145.999C536.473 -173.921 574.665 -184.414 606.702 -190.667C632.484 -195.724 663.577 -197.624 683.057 -219.065C697.376 -234.829 691.02 -257.771 696.505 -277.505C703.314 -301.969 718.941 -321.987 738.145 -337.033C791.808 -379.083 866.423 -391.987 930.977 -394.733C998.02 -397.579 1071.89 -384.269 1134.98 -358.666C1213.65 -326.732 1272.58 -266.265 1313.79 -189.692C1321.4 -175.557 1328.31 -161.052 1335.61 -146.746C1340.51 -137.149 1347.79 -127.866 1351.65 -117.771C1358.09 -100.94 1350.51 -87.1821 1338.35 -76.2126C1320.86 -60.4199 1299.37 -49.1802 1279.43 -37.3286C1252.17 -21.1091 1224.29 -5.1813 1198.93 13.8481C1181.88 26.653 1164.04 40.4466 1157.94 62.663C1153.78 77.8154 1152.92 93.8642 1153.07 109.557C1153.39 143.206 1151.72 170.416 1136.83 201.233C1112.34 251.826 1074.67 297.319 1034.88 335.171C1003.65 364.879 954.242 411.026 908.743 391.164C867.921 373.38 844.041 330.811 817.145 296.394C804.068 279.662 789.379 264.382 772.119 252.481C750.358 237.478 729.872 231.182 704.09 228.728C660.696 224.595 595.265 223.52 581.851 168.602C576.898 148.335 579.725 127.342 577.127 106.811C573.733 79.665 563.808 56.3887 551.716 32.4223Z" stroke="white"/>
<path fill-rule="evenodd" clip-rule="evenodd" d="M576.638 34.1816C559.571 -17.8069 537.15 -83.3266 578.371 -129.532C598.338 -151.916 626.423 -164.429 653.604 -173.78C673.072 -180.481 703.983 -182.454 715.918 -203.057C724.684 -218.219 725.898 -239.135 733.828 -255.38C744.725 -277.714 761.232 -296.109 780.599 -310.509C831.051 -348.034 896.763 -362.533 956.69 -366.685C1086.9 -375.694 1219.39 -303.943 1289.07 -185.894C1309.84 -150.705 1336.66 -113.252 1303.09 -77.3017C1266.43 -38.0824 1211.21 -19.7084 1167.46 8.15886C1150.74 18.7987 1129.44 31.5893 1120.12 50.8535C1114.51 62.4334 1114.12 76.9617 1113.87 89.7096C1113.19 122.177 1110.64 151.376 1098.26 181.672C1079.15 228.49 1048.68 271.684 1014.15 307.064C984.033 337.916 941.086 374.172 897.35 351.931C863.816 334.839 842.548 298.561 816.493 271.819C787.497 242.036 751.637 221.967 712.257 212.16C673.949 202.646 631.932 196.229 611.743 155.806C604.818 141.94 597.582 123.986 594.986 108.639C590.795 83.3348 584.659 58.4332 576.638 34.1816Z" stroke="white"/>
<path fill-rule="evenodd" clip-rule="evenodd" d="M604.426 34.5479C596.531 -17.9494 595.653 -72.6895 632.338 -114.065C649.459 -133.368 671.101 -147.082 692.986 -159.506C709.088 -168.649 725.716 -176.36 737.741 -191.348C748.883 -205.225 757.352 -221.338 768.109 -235.579C782.299 -254.45 799.277 -270.787 818.392 -283.96C866.306 -316.92 924.592 -332.335 980.354 -337.682C1007.35 -340.281 1036.63 -341.634 1063.44 -334.55C1089.33 -327.714 1114.94 -316.906 1138.75 -304.303C1189.36 -277.538 1233.22 -238.341 1265.02 -188.785C1286.83 -154.793 1298.62 -121.741 1270.38 -87.2575C1238.55 -48.3883 1188.64 -26.9422 1147.5 -1.71531C1119.28 15.5868 1087.66 32.5472 1082.39 69.3159C1078.19 98.5729 1074.78 126.342 1063.93 153.997C1047.77 194.788 1024.01 231.739 994.053 262.658C966.661 290.826 932.008 314.728 892.827 299.683C861.784 287.743 837.699 260.992 810.577 241.867C780.351 220.506 747.142 208.73 712.172 199.26C680.744 190.715 651.152 177.586 630.84 149.71C626.683 144.014 622.316 137.812 619.111 131.44C615.021 123.308 615.339 115.248 614.536 106.135C612.444 82.0825 607.996 58.308 604.426 34.5479Z" stroke="white"/>
<path fill-rule="evenodd" clip-rule="evenodd" d="M635.066 30.257C635.74 -19.6077 647.106 -66.7338 678.236 -105.594C691.544 -122.218 707.436 -135.911 722.08 -151.144C733.871 -163.425 745.014 -174.836 758.572 -184.956C790.733 -208.918 816.871 -239.926 851.05 -261.264C896.675 -289.791 948.937 -305.559 1000.79 -311.864C1026.12 -314.944 1052.27 -316.021 1077.89 -312.541C1099.9 -309.553 1120.97 -299.062 1140.52 -288.329C1178.83 -267.305 1216.03 -237.423 1240.91 -199.618C1295.75 -116.27 1187.62 -55.6726 1132.12 -20.1854C1106.59 -3.86098 1067.59 15.0451 1057.14 47.3801C1049.66 70.4796 1045.11 93.9713 1035.49 116.358C1009.63 176.478 957.146 247.188 887.204 237.774C857.276 233.752 829.998 217.413 802.059 206.445C773.29 195.148 743.597 188.851 713.696 181.94C685.75 175.486 663.477 166.301 645.427 141.675C636.799 129.915 637.562 115.837 636.793 101.41C635.538 77.7111 634.762 53.8771 635.066 30.257Z" stroke="white"/>
<path fill-rule="evenodd" clip-rule="evenodd" d="M662.966 23.87C674.202 -51.3962 715.934 -133.566 777.297 -177.276C849.477 -228.694 927.674 -271.992 1013.91 -284.44C1053.9 -290.211 1097.7 -293.051 1135.42 -274.177C1164.14 -259.823 1197.49 -238.366 1213.29 -208.191C1251.95 -134.384 1165.96 -75.6285 1116.97 -41.4826C1090.59 -23.1002 1057.02 -5.18752 1037.14 21.6566C1025.6 37.2209 1019.71 57.8094 1010.4 74.9037C982.183 126.706 935.73 168.488 877.866 175.961C851.111 179.412 824.161 175.142 797.609 171.748C770.429 168.275 742.912 166.389 715.9 161.542C694.339 157.671 668.928 151.116 660.987 126.77C650.973 96.0902 658.38 54.607 662.966 23.87Z" stroke="white"/>
<path fill-rule="evenodd" clip-rule="evenodd" d="M690.324 11.779C706.712 -58.9839 741.414 -128.009 799.752 -170.253C830.688 -192.653 866.601 -208.117 901.08 -223.395C940.163 -240.71 980.997 -254.15 1022.7 -260.817C1074.63 -269.122 1158.73 -276.607 1185.86 -214.178C1212.79 -152.211 1144.75 -97.3675 1104.51 -66.1136C1078.71 -46.092 1051.1 -27.7157 1026.45 -5.82801C1013.08 6.03823 1002.79 19.7492 991.476 33.6668C960.215 72.2285 915.649 102.756 870.225 119.052C826.199 134.85 771.736 141.845 725.263 136.624C705.211 134.38 690.879 126.809 684.814 105.284C676.411 75.3624 683.55 41.0101 690.324 11.779Z" stroke="white"/>
<path fill-rule="evenodd" clip-rule="evenodd" d="M717.51 -7.27983C733.79 -69.5839 768.904 -126.49 820.124 -163.884C877.538 -205.803 951.469 -229.096 1019.42 -240.941C1055.54 -247.233 1133.81 -264.291 1152.22 -215.471C1170.63 -166.65 1117.41 -118.539 1086.78 -92.0543C1049.6 -59.9589 1009.52 -28.9699 969.481 -0.172707C934.697 24.8653 897.58 50.4635 859.903 69.7988C838.654 80.7676 816.518 89.7235 793.759 96.5604C776.906 101.582 755.476 109.072 737.807 105.334C693.241 95.8936 709.724 22.5104 717.51 -7.27983Z" stroke="white"/>
<path fill-rule="evenodd" clip-rule="evenodd" d="M751.067 -25.9369C786.787 -143.761 899.959 -201.709 1008.92 -221.908C1034.25 -226.596 1105.23 -243.5 1119.38 -207.508C1133.1 -172.611 1089.48 -131.225 1069.06 -111.618C1005.78 -50.8592 927.598 -5.80976 853.516 38.8199C830.392 52.7503 788.687 82.9801 760.003 69.0355C728.86 53.8673 743.667 -1.50546 751.067 -25.9369Z" stroke="white"/>
<path fill-rule="evenodd" clip-rule="evenodd" d="M787.655 -48.615C818.719 -135.384 909.071 -185.149 992.141 -201.555C1012.49 -205.569 1064.16 -218.067 1079.57 -193.854C1093.83 -171.455 1059.8 -139 1047.07 -126.103C1018.72 -97.3838 985.129 -73.7254 951.942 -50.9851C921.256 -29.9459 890.239 -8.38002 857.952 9.41362C840.945 18.7802 809.05 38.7661 789.724 24.3034C768.918 8.74462 780.758 -29.348 787.655 -48.615Z" stroke="white"/>
<path fill-rule="evenodd" clip-rule="evenodd" d="M-211.146 97.1121C-212.002 41.5236 -239.996 -16.2486 -226.171 -72.8898C-214.818 -119.409 -157.663 -123.293 -123.375 -144.369C-96.1284 -161.113 -80.6656 -190.774 -65.9305 -219.234C-52.6911 -244.784 -40.7993 -271.102 -26.8524 -296.232C-17.824 -312.479 -2.3208 -344.381 17.2587 -344.957C36.0027 -345.512 53.1903 -320.652 64.0782 -305.956C78.2744 -286.801 90.8602 -266.379 104.645 -246.918C127.877 -214.091 155.75 -189.793 187.666 -166.796C223.986 -140.63 260.906 -115.357 298.425 -90.9783C326.05 -72.9752 353.862 -55.1072 380.415 -35.3258C397.071 -22.9136 433.831 0.374577 434 23.2573C434.08 34.1758 424.277 46.268 417.668 54.9957C406.483 69.7695 393.736 83.2772 380.948 96.4932C357.13 121.111 332.302 144.613 307.744 168.399C275.868 199.27 245.421 229.635 217.399 264.681C188.427 300.958 160.749 338.429 132.505 375.389C113.377 400.427 94.2694 428.545 66.679 443.909C32.1218 463.114 3.7565 442.863 -31.1914 442.628C-61.2546 442.422 -59.0379 368.902 -62.8582 348.459C-66.6918 327.767 -75.1408 308.505 -78.4153 287.763C-82.4983 261.872 -82.5522 235.383 -83.5561 209.214C-84.7756 177.205 -85.2607 146.733 -117.675 134.527C-136.123 127.592 -156.08 126.133 -175.174 121.979C-187.544 119.283 -210.876 114.674 -211.146 97.1121Z" stroke="white"/>
<path fill-rule="evenodd" clip-rule="evenodd" d="M-196.366 87.2234C-199.518 40.6265 -218.135 -19.0141 -200.53 -67.114C-185.489 -108.218 -138.45 -113.547 -106.776 -135.139C-80.628 -152.949 -68.988 -182.092 -55.9175 -210.723C-45.4314 -233.69 -35.2625 -256.878 -23.3593 -279.112C-14.5872 -295.496 -1.19273 -323.158 17.0466 -326.549C33.4438 -329.598 51.0286 -305.178 60.2326 -292.754C73.6607 -274.617 85.1455 -254.919 97.0081 -235.635C117.852 -201.761 139.195 -171.3 169.702 -146.416C200.344 -121.426 233.867 -102.74 267.748 -83.2922C294.253 -68.0757 320.624 -52.4176 345.807 -34.8503C364.566 -21.771 391.537 -5.02999 400.12 18.2934C406.915 36.7441 372.454 67.3622 362.292 78.169C341.373 100.388 319.207 121.247 297 141.977C269.928 167.238 241.992 189.329 218.084 218.145C175.323 269.664 139.58 333.821 84.5584 372.112C51.3727 395.207 14.4419 401.113 -22.4686 397.658C-37.0844 396.29 -40.5932 374.513 -42.4354 361.811C-45.4989 340.71 -45.8835 319.246 -48.2385 298.06C-50.445 278.227 -55.3439 259.385 -59.2914 239.937C-63.2861 220.232 -64.4063 200.043 -67.3483 180.203C-69.1702 167.886 -70.9719 153.553 -78.941 143.651C-87.1869 133.4 -100.79 129.104 -112.68 125.842C-135.009 119.772 -194.14 120.107 -196.366 87.2234Z" stroke="white"/>
<path fill-rule="evenodd" clip-rule="evenodd" d="M-177.344 67.7171C-182.644 24.9447 -190.064 -28.3287 -168.473 -67.736C-150.826 -99.9576 -113.188 -106.909 -86.3047 -127.903C-63.9448 -145.362 -55.4991 -173.13 -44.4002 -198.935C-35.2928 -220.1 -26.1382 -241.358 -15.1001 -261.5C-6.72861 -276.774 4.05978 -297.485 20.6812 -302.814C34.8924 -307.367 50.9467 -286.97 58.8253 -276.817C72.2399 -259.515 83.1768 -240.128 94.0395 -220.997C111.809 -189.693 128.16 -156.255 153.45 -130.792C178.024 -106.083 207.216 -91.4985 236.955 -75.0995C259.734 -62.5353 282.37 -49.4873 303.832 -34.5041C320.312 -23.0071 340.734 -9.3828 349.322 9.74811C356.748 26.2467 337.683 45.776 328.157 57.4153C312.427 76.6245 294.968 94.2471 277.753 111.941C259.173 131.029 238.596 148.638 220.617 168.195C182.811 209.353 152.606 254.921 106.009 286.453C75.8315 306.878 35.2232 325.433 -0.450012 322.096C-26.1045 319.692 -24.4167 259.773 -26.8809 240.628C-30.9316 209.324 -38.7562 176.434 -51.1851 147.599C-61.8587 122.89 -87.2229 115.27 -110.555 109.728C-125.171 106.249 -140.49 104.371 -154.627 98.9925C-170.992 92.7602 -175.123 85.6457 -177.344 67.7171Z" stroke="white"/>
<path fill-rule="evenodd" clip-rule="evenodd" d="M-159.601 47.6682C-162.756 11.5063 -162.047 -31.2558 -141.607 -62.5371C-123.695 -89.9369 -91.8021 -97.1508 -69.1192 -118.735C-51.4161 -135.575 -44.4632 -163.031 -34.9427 -185.301C-23.3074 -212.529 -7.00294 -262.819 22.3491 -273.066C49.6537 -282.591 78.2084 -221.741 88.0938 -203.596C103.743 -174.876 116.831 -143.381 135.811 -116.859C152.156 -94.0255 174.055 -81.403 197.299 -67.8387C226.935 -50.5141 271.929 -29.9714 287.774 3.79302C299.585 28.9523 261.179 66.3557 248.063 83.7874C234.347 101.997 224.016 123.581 209.86 141.148C187.522 168.869 151.325 191.189 121.439 208.221C92.3844 224.789 54.6538 243.127 21.6936 242.035C0.0309963 241.322 -4.09071 206.016 -8.71243 188.77C-15.3342 164.253 -24.1384 142.283 -43.051 125.608C-62.3014 108.633 -84.9911 100.634 -108.843 93.6341C-121.087 90.0665 -135.053 87.2837 -146.006 80.077C-158.108 72.2353 -158.385 61.5679 -159.601 47.6682Z" stroke="white"/>
<path fill-rule="evenodd" clip-rule="evenodd" d="M-137.982 26.8246C-137.807 -4.41661 -131.038 -37.7311 -110.968 -61.8295C-94.2515 -81.902 -68.0861 -88.6117 -52.0837 -109.132C-39.4084 -125.377 -32.9563 -148.183 -24.4702 -167.049C-14.0916 -190.167 0.583975 -230.554 26.3925 -238.577C51.5814 -246.387 73.8608 -201.904 83.5188 -184.302C97.6622 -158.493 109.112 -131.135 123.383 -105.397C134.563 -85.2036 148.235 -72.1888 166.44 -59.174C187.81 -43.8871 217.626 -26.9529 229.042 -1.66171C237.272 16.6499 217.35 45.9102 210.117 62.042C205.267 72.877 200.829 83.8825 198.391 95.6264C196.492 104.772 196.303 113.235 190.801 121.088C176.947 140.841 146.572 143.418 125.963 149.929C98.5917 158.57 69.5504 168.39 40.9064 170.265C23.3011 171.436 14.3167 154.317 4.26804 142.275C-7.60577 128.039 -24.4163 117.801 -39.0986 107.058C-58.4752 92.8573 -79.5625 84.0245 -101.377 74.9787C-111.217 70.8961 -122.774 66.8915 -130.398 58.7759C-138.359 50.362 -138.042 38.0999 -137.982 26.8246Z" stroke="white"/>
<path fill-rule="evenodd" clip-rule="evenodd" d="M-115.276 8.27816C-111.797 -17.9603 -100.956 -43.038 -82.6449 -61.5865C-68.6084 -75.8272 -49.9671 -83.8447 -38.7014 -100.955C-28.2044 -116.904 -20.8894 -135.04 -12.2194 -152.093C-3.04371 -170.122 10.5883 -200.255 31.7511 -205.161C54.5588 -210.444 72.1281 -180.047 81.8566 -163.201C94.1471 -141.911 103.485 -119.005 114.474 -96.9817C122.753 -80.5669 133.313 -65.5544 145.803 -52.444C158.903 -38.6235 176.668 -25.3868 183.295 -6.38261C189.153 10.4499 178.191 30.814 176.256 47.8814C174.187 66.1166 177.814 85.2703 166.339 100.928C142.675 133.219 83.2859 127.23 49.3339 127.921C15.8335 128.633 -11.1002 108.874 -38.2093 90.0765C-56.1157 77.6658 -74.7637 67.1561 -93.1218 55.5927C-111.837 43.7943 -118.336 31.3694 -115.276 8.27816Z" stroke="white"/>
<path fill-rule="evenodd" clip-rule="evenodd" d="M-94.1792 -6.73972C-83.8916 -44.7516 -51.7607 -64.9548 -28.7907 -93.6811C-9.9965 -117.198 4.09579 -165.899 35.7478 -172.342C71.6834 -179.653 93.1963 -115.124 105.69 -90.2248C119.553 -62.6102 144.243 -40.148 154.51 -10.9157C159.907 4.42727 155.272 18.7441 152.399 34.0799C149.248 50.9195 146.881 68.1367 136.006 81.691C114.601 108.365 72.7965 108.18 42.6894 108.914C11.5231 109.676 -16.0476 91.3971 -40.8795 73.1537C-67.2156 53.8341 -104.716 32.2414 -94.1792 -6.73972Z" stroke="white"/>
<path fill-rule="evenodd" clip-rule="evenodd" d="M-76.9486 -17.0472C-65.3564 -44.1295 -40.9965 -66.1467 -21.23 -86.9313C-4.73191 -104.259 13.0165 -139.141 38.1714 -141.627C67.7362 -144.56 85.6545 -107.312 97.2874 -84.4732C108.737 -62.0309 125.235 -38.3348 131.575 -13.7036C138.186 11.9549 120.58 46.5109 103.79 64.6673C85.0633 84.9135 54.4249 92.3942 28.1353 91.5866C0.608929 90.7649 -24.6479 74.0324 -45.4948 56.6764C-67.7822 38.1233 -90.4297 14.3918 -76.9486 -17.0472Z" stroke="white"/>
<path fill-rule="evenodd" clip-rule="evenodd" d="M-60.9603 -22.1459C-49.8874 -44.6712 -30.6933 -63.726 -12.9957 -80.7229C0.661869 -93.8449 20.8149 -116.157 40.519 -116.704C62.1956 -117.307 80.5666 -98.5784 89.1842 -79.3816C97.6793 -60.4473 106.63 -36.7085 107.902 -15.9362C110.664 29.2988 54.4418 79.97 12.2245 75.8467C-27.8027 71.9364 -83.0382 22.7343 -60.9603 -22.1459Z" stroke="white"/>
<path fill-rule="evenodd" clip-rule="evenodd" d="M-46.1741 -24.6296C-30.8984 -53.9782 6.20668 -95.8187 40.5584 -96.8123C79.9884 -97.9479 89.8867 -51.3876 84.7472 -17.6456C79.5261 16.792 34.066 66.6385 -2.1824 59.9028C-37.5607 53.3305 -64.2779 10.177 -46.1741 -24.6296Z" stroke="white"/>
<path fill-rule="evenodd" clip-rule="evenodd" d="M-30.5621 -29.3751C-17.6286 -53.9482 9.97039 -84.6415 38.7556 -85.5705C73.0538 -86.6697 72.4068 -47.3599 64.6292 -22.8932C56.5416 2.50965 20.9224 45.8973 -9.10966 39.0466C-38.3127 32.359 -42.9564 -5.82321 -30.5621 -29.3751Z" stroke="white"/>
<path fill-rule="evenodd" clip-rule="evenodd" d="M-16.9644 -32.2031C-8.42738 -49.7372 12.9387 -71.8982 33.2504 -72.6073C58.0772 -73.4597 53.2511 -42.2809 46.8366 -27.2323C39.2121 -9.32582 13.6552 21.7885 -7.79199 16.746C-28.908 11.7823 -24.0075 -17.7562 -16.9644 -32.2031Z" stroke="white"/>
<path fill-rule="evenodd" clip-rule="evenodd" d="M1150.93 969.629C1095.98 1004.81 1033.86 1033.85 975.277 1063.36C889.669 1106.49 802.8 1148.46 712.848 1180.58C664.621 1197.8 602.128 1222.63 550.381 1209.14C531.461 1204.21 514.207 1189.29 497.243 1179.6C473.852 1166.24 450.116 1153.54 426.421 1140.81C378.888 1115.29 331.208 1090.03 284.492 1062.88C261.997 1049.8 240.17 1033.33 216.751 1022.17C203.066 1015.65 186.689 1018.7 172.065 1019.11C138.192 1020.07 104.339 1021.89 70.4854 1023.44C29.0776 1025.34 -12.4246 1027.35 -53.8795 1026.6C-72.5767 1026.26 -118.369 1029.76 -128.662 1012.77C-134.199 1003.62 -121.148 987.119 -115.097 979.484C-103.988 965.452 -91.2199 952.808 -78.6202 940.292C-49.4817 911.346 -18.5356 883.78 7.36536 851.447C20.6733 834.825 38.1092 814.518 29.4216 791.826C20.6531 768.907 5.46323 749.062 -3.80444 726.221C-14.4751 699.937 -18.8998 672.585 -23.9384 644.713C-27.6684 624.114 -36.3559 605.862 -44.5242 586.871C-53.549 565.88 -62.8977 544.712 -69.1638 522.575C-73.3053 507.953 -79.9895 481.647 -65.5012 472.389C-44.9154 459.226 -6.31362 469.885 17.1523 473.763C49.5824 479.114 81.7765 485.93 114.119 491.801C137.598 496.07 161.159 500.752 185.029 501.25C223.51 502.054 262.118 499.272 300.498 496.682C371.563 491.886 442.119 485.382 513.425 485.382C575.896 485.382 720.261 561.639 754.054 575.066C821.504 601.871 890.748 627.28 954.576 662.943C971.844 672.599 998.419 685.464 1007.5 705.337C1013.11 717.583 1010.53 724.663 1023.75 732.554C1041.79 743.32 1064.9 747.547 1084.86 752.364C1117.02 760.12 1149.42 766.687 1181.72 773.71C1247.05 787.877 1311.94 803.901 1377 819.321C1396.67 823.981 1420.47 825.013 1439.22 833.225C1451.31 838.497 1450.05 845.136 1440.7 853.148C1424.29 867.208 1401.29 875.014 1381.9 883.033C1353.5 894.781 1324.63 905.262 1295.75 915.594C1266.86 925.926 1237.83 935.937 1208.94 946.29C1189.85 953.107 1168.08 958.65 1150.93 969.629Z" stroke="white"/>
<path fill-rule="evenodd" clip-rule="evenodd" d="M1105.71 961.891C1047.58 997.142 983.06 1025.22 920.857 1052.62C841.249 1087.71 759.839 1120.59 675.96 1142.53C626.711 1155.4 568.603 1169.6 518.281 1154.85C500.329 1149.58 486.917 1137.75 471.528 1127.3C453.987 1115.38 435.772 1104.45 417.556 1093.7C380.059 1071.57 342.167 1050.19 303.878 1029.57C283.598 1018.6 261.274 1003.92 238.363 1000.11C220.148 997.085 199.456 1001.47 181.16 1002.74C148.21 1005.04 115.267 1007.4 82.3036 1009.41C44.2669 1011.73 6.12237 1013.87 -31.9952 1013.5C-53.2399 1013.29 -89.7114 1016.7 -104.736 1002.22C-117.844 989.574 -70.1197 943.856 -61.7271 935.169C-35.517 908.049 -7.95081 882.226 16.4445 853.224C30.8617 836.122 48.416 815.322 54.4946 792.656C59.6692 773.338 49.6844 751.327 43.788 733.47C36.4141 711.102 30.4637 687.915 21.8956 666.018C14.2654 646.508 2.12162 629.128 -8.54456 611.392C-20.2767 591.882 -32.1572 572.051 -40.8669 550.767C-46.2034 537.67 -55.0345 515.737 -44.4291 503.253C-32.1775 488.859 5.58939 498.265 21.113 500.317C52.6056 504.535 83.8553 510.806 115.132 516.421C167.08 525.741 216.606 533.893 269.505 531.941C338.393 529.39 407.214 523.39 476.089 520.069C501.523 518.829 527.362 516.335 552.817 517.682C567.409 518.459 578.521 523.162 587.008 533.772C598.598 548.252 625.294 556.268 643.86 564.576C672.809 577.524 702.123 589.566 731.355 601.765C795.528 628.558 860.935 654.382 921.795 689.034C941.049 699.993 963.097 712.214 977.339 730.32C985.286 740.417 983.282 750.144 988.133 760.875C994.556 774.991 1015.67 781.361 1028.29 785.979C1052.66 794.9 1078.02 800.879 1103.18 806.479C1160.12 819.149 1217.2 827.479 1275.06 833.614C1288.62 835.039 1342.02 839.977 1313.97 863.777C1282.99 890.078 1238.25 902.968 1201.77 917.79C1168.91 931.115 1136.02 943.514 1105.71 961.891Z" stroke="white"/>
<path fill-rule="evenodd" clip-rule="evenodd" d="M1025.38 955.372C970.741 986.384 910.214 1009.52 851.369 1031.65C779.962 1058.51 706.765 1082.45 631.872 1095.86C584.826 1104.28 532.957 1110.75 486.228 1096.76C454.317 1087.21 429.632 1061.4 401.604 1043.64C373.576 1025.88 344.413 1009.21 314.379 995.32C295.739 986.697 275.687 978.01 254.946 979.149C204.516 981.909 154.147 988.49 103.662 991.684C70.2651 993.819 36.8004 995.576 3.30188 995.05C-16.8986 994.737 -44.6498 996.017 -62.5337 984.805C-82.3019 972.404 22.9552 866.526 32.9034 854.609C57.845 824.728 88.0478 785.072 83.2256 742.577C78.6128 701.953 58.6217 671.624 36.0101 639.793C23.178 621.687 -17.9725 573.315 -2.72253 549.766C5.98979 536.305 34.7067 540.965 48.3492 541.883C75.2359 543.69 101.974 547.575 128.719 550.947C167.715 555.835 207.785 563.383 246.95 565.596C274.221 567.133 301.655 565.077 328.974 565.034C368.146 564.977 407.317 565.29 446.489 565.66C479.38 565.973 512.547 565.66 545.323 568.99C565.699 571.039 581.165 575.642 595.781 588.647C608.498 599.959 627.685 606.583 643.894 613.775C670.666 625.65 697.789 636.656 724.824 647.84C781.427 671.261 838.679 694.191 892.857 723.46C917.589 736.814 959.172 755.511 964.974 787.889C967.067 799.564 968.607 804.608 979.413 811.246C994.751 820.666 1013.12 824.913 1030.33 828.605C1070.45 837.214 1111.73 835.926 1151.78 844.435C1168.09 847.943 1189.38 855.512 1170.76 872.843C1149.03 893.113 1117.41 904.254 1091.38 916.776C1078.38 923.022 1065 928.87 1052.66 936.497C1043.18 942.374 1035.07 949.908 1025.38 955.372Z" stroke="white"/>
<path fill-rule="evenodd" clip-rule="evenodd" d="M921.894 945.689C871.415 970.878 816.594 989.192 762.757 1005.7C702.96 1024.01 641.719 1039.18 579.669 1045.64C536.824 1050.11 491.173 1051.43 449.589 1037.74C423.291 1029.09 405.462 1010.88 382.832 995.61C348.679 972.532 311.727 954.247 270.695 958.697C224.694 963.675 178.542 967.41 132.239 969.901C104.31 971.406 76.2719 972.532 48.3083 971.484C30.628 970.828 7.84994 969.723 -7.53101 961.272C-28.1109 949.954 49.1917 863.834 58.8275 851.282C82.725 820.153 100.244 787.491 110.479 748.924C118.827 717.452 101.774 692.713 84.1815 669.172C73.2443 654.553 37.9038 617.783 48.9692 598.798C55.038 588.329 75.0379 588.871 85.7797 588.336C106.252 587.324 126.811 588.379 147.283 588.843C177.512 589.556 209.69 584.657 239.663 588.6C306.089 597.329 372.347 604.889 439.184 610.872C476.028 614.167 513.095 617.162 549.609 623.516C562.717 625.798 576.257 628.216 588.678 633.379C596.669 636.695 601.025 642.343 607.768 646.979C639.919 669.044 681.888 680.397 718.098 694.539C766.237 713.338 814.632 731.844 861.489 754.051C886.135 765.733 920.559 779.154 937.518 802.995C942.642 810.198 940.458 815.96 943.681 822.885C947.389 830.872 958.657 833.254 965.933 835.479C982.447 840.535 1051.57 848.18 1019.72 877.84C1004.52 891.968 985.151 901.032 968.016 912.136C961.813 916.158 955.764 920.201 950.592 925.628C941.941 934.728 933.418 939.92 921.894 945.689Z" stroke="white"/>
<path fill-rule="evenodd" clip-rule="evenodd" d="M811.63 934.784C711.979 975.535 595.192 1003.3 486.547 997.92C450.417 996.125 411.544 990.133 380.226 969.629C361.759 957.518 347.002 943.846 324.819 939.472C308.805 936.315 291.561 939.899 275.453 941.196C252.121 943.077 228.776 944.758 205.41 946.119C176.443 947.779 147.381 949.061 118.36 948.377C97.6233 947.886 68.9873 948.441 50.9733 936.686C29.4659 922.665 84.2108 856.893 91.9137 845.173C110.583 816.768 123.671 789.246 128.401 755.013C129.793 745.039 134.483 734.816 133.874 724.763C133.239 714.497 127.246 705.356 121.712 697.284C114.475 686.704 89.3663 661.612 96.5557 648.71C100.529 641.586 115.441 640.688 123.171 639.178C137.672 636.328 152.382 634.796 166.97 632.53C191.721 628.669 216.296 616.094 241.134 616.451C307.927 617.391 375.685 639.249 441.14 651.253C480.053 658.413 519.23 664.911 557.67 674.607C569.833 677.678 582.36 680.855 593.921 686.063C601.989 689.697 607.172 696.173 614.645 700.241C643.301 715.865 676.255 725.347 707.026 735.863C746.973 749.542 787.055 762.807 826.725 777.37C851.591 786.496 883.565 794.525 904.991 811.453C920.64 823.814 909.944 827.511 901.687 839.025C897.471 844.895 898.444 850.68 896.612 857.327C893.998 866.817 886.605 873.649 879.673 879.79C870.112 888.276 857.375 895.265 849.557 905.666C846.8 909.328 846.929 913.874 844.699 917.065C838.212 926.363 821.002 930.951 811.63 934.784Z" stroke="white"/>
<path fill-rule="evenodd" clip-rule="evenodd" d="M705.68 920.265C624.802 945.886 534.811 960.475 449.319 953.704C419.574 951.345 389.647 945.865 361.939 933.828C349.332 928.368 339.869 922.282 326.056 921.954C294.004 921.199 261.851 923.843 229.806 924.477C206.873 924.933 183.826 925.097 160.947 923.152C145.649 921.854 124.963 920.301 112.431 910.402C94.2193 895.984 127.094 846.973 133.785 833.432C144.874 810.975 155.875 786.01 151.477 760.026C150.128 752.079 147.74 745.059 147.43 736.956C147.133 729.993 147.963 723.565 145.622 716.908C142.729 708.655 129.86 695.848 134.284 688.251C137.299 683.063 146.243 682.821 152.192 681.16C161.841 678.467 171.262 674.935 180.359 670.598C189.936 666.008 198.091 658.917 208.013 655.126C224.12 648.982 242.149 648.405 259.079 648.433C326.629 648.548 395.036 662.609 460.873 677.312C495.158 684.966 529.631 693.126 562.951 704.736C573.068 708.263 584.535 711.805 593.431 718.319C598.982 722.375 602.746 727.456 609.052 730.506C662.924 756.548 725.207 766.219 782.397 785.026C797.283 789.923 879.78 814.66 836.646 837.929C810.442 852.069 782.754 858.497 758.844 877.839C751.559 883.719 746.703 888.586 743.856 897.559C741.981 903.531 746.494 900.502 740.194 906.746C732.552 914.25 715.103 917.279 705.68 920.265Z" stroke="white"/>
<path fill-rule="evenodd" clip-rule="evenodd" d="M621.585 905.115C526.895 926.028 426.618 927.023 330.433 908.483C306.186 903.815 280.951 904.93 256.406 903.744C232.557 902.607 190.156 904.973 172.835 885.624C160.275 871.597 173.903 841.787 178.618 826.097C184.624 806.109 189.872 785.459 180.011 766.045C174.235 754.676 166.321 743.854 160.126 732.591C157.163 727.212 151.063 718.969 153.606 713.874C157.813 705.468 177.495 701.929 187.045 697.964C217.569 685.294 249.892 682.061 282.527 682.151C342.804 682.317 403.392 691.014 462.519 702.81C489.722 708.239 517.304 714.03 543.54 723.467C558.386 728.803 569.336 739.1 583.513 745.204C629.16 764.873 678.203 775.383 724.635 793.368C738.074 798.576 788.274 815.915 762.985 836.358C738.501 856.148 702.789 853.796 677.331 872.414C674.449 874.546 670.885 877.097 669.214 880.543C668.227 882.604 669.965 886.526 669.214 887.699C661.396 900.439 633.604 902.465 621.585 905.115Z" stroke="white"/>
<path fill-rule="evenodd" clip-rule="evenodd" d="M560.237 891.294C511.658 898.324 462.011 900.067 412.614 900.51C385.614 900.753 355.948 902.568 329.529 895.352C313.3 890.908 297.626 887.021 280.896 884.221C262.896 881.206 233.914 879.012 222.952 862.673C214.763 850.463 220.376 825.364 220.673 810.517C220.991 794.235 217.827 782.161 206.933 770.508C200.083 763.17 168.66 736.535 172.291 728.855C175.746 721.539 197.642 720.417 207.109 718.517C237.031 712.487 267.352 710.386 297.788 710.715C344.926 711.215 392.24 716.288 438.642 725.004C457.826 728.626 477.652 732.377 495.977 739.615C508.318 744.494 518.61 753.146 530.869 758.191C565.978 772.658 603.101 782.482 638.332 797.214C649.638 801.951 686.478 814.561 677.646 833.994C670.282 850.22 645.236 855.157 632.929 866.031C611.994 884.578 586.933 887.436 560.237 891.294Z" stroke="white"/>
<path fill-rule="evenodd" clip-rule="evenodd" d="M529.634 881.969C491.098 886.623 451.667 888.659 412.565 888.758C387.331 888.822 360.708 889.185 335.945 883.2C323.506 880.197 312.697 873.173 300.925 868.163C288.803 863.011 272.074 857.26 266.834 845.447C261.911 834.345 263.75 818.148 259.426 804.761C255.581 792.884 247.533 785.547 238.865 777.519C233.343 772.388 204.983 750.177 208.263 745.274C211.779 740.022 228.811 740.449 237.673 739.723C262.092 737.688 286.596 737.04 311.081 737.78C344.498 738.862 378.171 741.879 411.01 748.711C434.305 753.551 451.875 765.079 473.595 773.534C501.732 784.515 530.879 793.197 558.747 805.21C572.634 811.195 593.188 818.895 600.3 834.345C603.034 840.266 605.688 855.325 602.644 861.246C598.987 868.362 585.376 871.38 578.951 873.209C562.856 877.77 546.012 879.991 529.634 881.969Z" stroke="white"/>
</g>
</svg>
