<svg id="Layer_1" data-name="Layer 1" xmlns="http://www.w3.org/2000/svg" viewBox="0 0 1370.37 1164.97"><path d="M806,621.13a5.29,5.29,0,0,1,0,10.58H769.9a2,2,0,0,0-.43,0H757.53V621.1h14.75a3.2,3.2,0,0,1,.53,0H806Z" transform="translate(-76.94 -156.57)" style="fill:#ffdf14"/><path d="M757.53,621.1v10.58H709.09a5.26,5.26,0,0,1-5.28-5.27,5.3,5.3,0,0,1,5.28-5.31h48.44Z" transform="translate(-76.94 -156.57)" style="fill:#ffdf14"/><path d="M777.86,517.15a6.7,6.7,0,0,1-4.75,11.41h-14.4a5.76,5.76,0,0,1-1.18-.1v-12c.91,0,2,0,2.73,0,5.45,0,10.53-.32,15.25-.78A6.66,6.66,0,0,1,777.86,517.15Z" transform="translate(-76.94 -156.57)" style="fill:#ffdf14"/><path d="M757.53,516.44v12a5.86,5.86,0,0,1-1.19.1h-14.4a6.7,6.7,0,0,1-4.72-11.44,7,7,0,0,1,2.27-1.49c4.78.46,9.88.73,15.39.78.65,0,1.28,0,2,0h.68Z" transform="translate(-76.94 -156.57)" style="fill:#ffdf14"/><path d="M903.46,377.83c12.5,12.4,16.14,32.36,9.5,52.06-10.11,29.9-41.75,51.39-81,56.52a59.69,59.69,0,0,0,6.22-16.54c30.35-5.53,52.76-22,60.43-44.83,4.8-14.2,2.58-28.17-5.78-36.45-6.09-6-12.58-8.86-19.9-8.61-13,.4-25.26,10.3-30.86,15.56a156,156,0,0,1,5-22.68c7.2-4.22,15.91-7.73,25.28-8C883.91,364.45,894.37,368.81,903.46,377.83Z" transform="translate(-76.94 -156.57)" style="fill:#ffdf14"/><path d="M860.17,338a4.71,4.71,0,0,1,0,9.42H757.53V338h10.18a.74.74,0,0,1,.25,0Z" transform="translate(-76.94 -156.57)" style="fill:#ffdf14"/><path d="M757.53,347.4H857.59s-5.7,9.44-10.53,25.46a156,156,0,0,0-5,22.68,153,153,0,0,0-1.62,22.25c0,16.52,1.54,35.33-2.27,52.08a59.69,59.69,0,0,1-6.22,16.54c-8.46,14.95-24.87,26.22-56.42,29.22-4.72.46-9.8.73-15.25.78-.69,0-1.82,0-2.73,0Z" transform="translate(-76.94 -156.57)" style="fill:#ffdf14"/><path d="M818.67,634.13a8.34,8.34,0,0,1-5.88,14.25H757.53V631.71h55.26A8.31,8.31,0,0,1,818.67,634.13Z" transform="translate(-76.94 -156.57)" style="fill:#ffdf14"/><path d="M773.11,606.2v14.93h-.3a3.2,3.2,0,0,0-.53,0H757.53V528.46a5.76,5.76,0,0,0,1.18.1h14.4v15.26l-6.69,7.83v48Z" transform="translate(-76.94 -156.57)" style="fill:#ffdf14"/><path d="M757.53,631.71v16.67H745.61a2,2,0,0,1-.43,0H702.29a8.34,8.34,0,0,1,0-16.67h40a3.2,3.2,0,0,0,.53,0Z" transform="translate(-76.94 -156.57)" style="fill:#ffdf14"/><path d="M757.53,528.46V621.1H741.94V606.18l6.7-6.57v-48l-6.7-7.83V528.56h14.4A5.86,5.86,0,0,0,757.53,528.46Z" transform="translate(-76.94 -156.57)" style="fill:#ffdf14"/><path d="M757.53,347.4v169h-.68c-.69,0-1.32,0-2,0-5.51,0-10.61-.32-15.39-.78-31.49-3-47.91-14.27-56.37-29.22v0a59.12,59.12,0,0,1-6.21-16.54c-3.82-16.72-2.27-35.56-2.27-52.08A153,153,0,0,0,673,395.51a156.24,156.24,0,0,0-5-22.65c-4.82-16-10.53-25.46-10.53-25.46Z" transform="translate(-76.94 -156.57)" style="fill:#ffdf14"/><path d="M757.53,338v9.45H654.91a4.73,4.73,0,0,1,0-9.45Z" transform="translate(-76.94 -156.57)" style="fill:#ffdf14"/><path d="M683.12,486.38v0c-39.25-5.13-70.92-26.65-81-56.52-6.66-19.73-3-39.68,9.48-52.06,9.09-9,19.57-13.41,31.11-13,9.37.31,18.08,3.82,25.28,8a156.24,156.24,0,0,1,5,22.65c-5.61-5.25-17.86-15.15-30.86-15.56-7.3-.25-13.82,2.6-19.88,8.64-8.36,8.28-10.58,22.25-5.81,36.45,7.7,22.8,30.08,39.27,60.44,44.8A59.12,59.12,0,0,0,683.12,486.38Z" transform="translate(-76.94 -156.57)" style="fill:#ffdf14"/><path d="M864.93,245.94c3.36-2.1,10.62-1.58,18.15,2.57a23.8,23.8,0,0,1,8.34,7.6c1.84,2.68,2.74,5.23,2.6,7.15a13.08,13.08,0,0,1-7.51.34c-3.11-.54-6.41-2.1-10-3.94C869.44,255.8,865.46,249.64,864.93,245.94Z" transform="translate(-76.94 -156.57)" style="fill:#ffdf14"/><path d="M934.46,297.4c-5.78-6.86-12.57-12.73-19.05-18.91-3.36-2.95-7-5.62-10.43-8.45l-5.26-4.18c-1.82-1.29-3.7-2.5-5.56-3.76L893,263.85c1.84,1.25,3.7,2.45,5.51,3.73l5.21,4.15c3.43,2.8,7,5.44,10.34,8.37,6.41,6.12,13.15,11.93,18.87,18.73Z" transform="translate(-76.94 -156.57)" style="fill:#ffdf14"/><path d="M909.05,244.31c-1.47,1.3-2.64,3.73-3.26,6.84a34.59,34.59,0,0,0-.06,11.14c1.22,8.5,5,14.59,8.52,16.27,3.13-2.21,5.94-9,4.69-17.46S913.05,245.79,909.05,244.31Z" transform="translate(-76.94 -156.57)" style="fill:#ffdf14"/><path d="M881.3,283.78a14.49,14.49,0,0,1,5.22-5.52,24.15,24.15,0,0,1,10.09-3.84c8-1.13,15.11,1.32,17.36,4.46-1.72,3.38-8.19,7-16.2,8.19S883.77,286.11,881.3,283.78Z" transform="translate(-76.94 -156.57)" style="fill:#ffdf14"/><path d="M899.75,298.31c2-3.34,8-7.11,16.18-7.48a27.39,27.39,0,0,1,10.86,1.64c2.84,1.31,4.92,3,5.82,4.77h0c-2.11,3.2-8.93,6.05-16.78,6.1C907.69,303.68,901.66,301.22,899.75,298.31Z" transform="translate(-76.94 -156.57)" style="fill:#ffdf14"/><path d="M931.74,262.2c-3.18,2.22-5.79,9.17-5.4,17.6a31.36,31.36,0,0,0,2.35,10.81c1.1,3.05,2.61,5.27,4.23,6.34h0c3.35-1.83,6.91-8.29,6.86-17.06C939.43,271.44,935.27,264.43,931.74,262.2Z" transform="translate(-76.94 -156.57)" style="fill:#ffdf14"/><path d="M965.21,339.83c-9-15.46-19.2-30.32-31.54-43.31L932.1,298c12.23,12.87,22.37,27.6,31.25,42.92Z" transform="translate(-76.94 -156.57)" style="fill:#ffdf14"/><path d="M952.1,282.51c-3.43,1.87-6.75,8.43-7.16,16.74s1.45,15.45,4.59,17.83c3.54-1.46,7.74-7.43,8.52-16.05a26.67,26.67,0,0,0-1.33-11.62A16.09,16.09,0,0,0,952.1,282.51Z" transform="translate(-76.94 -156.57)" style="fill:#ffdf14"/><path d="M916.28,314.83c2.34-3.08,8.77-6.2,17.09-5.78,8.15.55,14.26,4.76,15.82,8.28-2.43,2.92-9.58,5.05-17.53,4.33a30.78,30.78,0,0,1-9.95-2.63C919,317.85,917.12,316.34,916.28,314.83Z" transform="translate(-76.94 -156.57)" style="fill:#ffdf14"/><path d="M931.13,333.05c2.63-2.78,9.55-5.29,17.44-3.72a26.89,26.89,0,0,1,10.09,4.1,17.34,17.34,0,0,1,3.27,2.84,8,8,0,0,1,1.53,3h0c-1.39,1.32-3.89,2.3-7,2.73a35.8,35.8,0,0,1-10.88-.39,27.7,27.7,0,0,1-9.72-3.65A13,13,0,0,1,931.13,333.05Z" transform="translate(-76.94 -156.57)" style="fill:#ffdf14"/><path d="M970.32,304.92c-3.64,1.5-7.5,7.53-9.16,16a31.54,31.54,0,0,0-.23,11.15,17.35,17.35,0,0,0,1.22,4.11,9,9,0,0,0,1.68,2.9h0c1.83-.52,4-2.16,5.91-4.75A24.07,24.07,0,0,0,974.11,324C975.65,315.71,973.46,307.73,970.32,304.92Z" transform="translate(-76.94 -156.57)" style="fill:#ffdf14"/><path d="M985.86,388l-4.35-12.7c-.77-2.1-1.34-4.28-2.27-6.32l-2.69-6.15-2.69-6.15a57.88,57.88,0,0,0-2.85-6.07l-6.36-11.83-1.85,1.06,6.3,11.72a60.92,60.92,0,0,1,2.83,6l2.66,6.1,2.67,6.1c.92,2,1.49,4.17,2.25,6.25l4.31,12.59Z" transform="translate(-76.94 -156.57)" style="fill:#ffdf14"/><path d="M985.69,329.21C982,330.27,977.22,336,974.88,344c-2.13,8-1.87,15.32.56,18.38,3.77-.63,9.23-5.55,12-13.83a24.61,24.61,0,0,0,1.1-11.54A16.21,16.21,0,0,0,985.69,329.21Z" transform="translate(-76.94 -156.57)" style="fill:#ffdf14"/><path d="M943.61,352.82c3-2.49,9.9-4.1,17.81-1.79,8.11,2.2,13,7.72,13.64,11.55-3,2.32-10.44,2.79-17.92.28a34.69,34.69,0,0,1-9.29-4.67C945.52,356.41,944.06,354.49,943.61,352.82Z" transform="translate(-76.94 -156.57)" style="fill:#ffdf14"/><path d="M953.92,373.92c3.18-2.12,10.4-3,18.05.15,7.31,3.28,12,9.18,12.24,13h0c-3.24,2-10.72,1.61-18.05-1.66a26.73,26.73,0,0,1-8.49-5.76C955.61,377.62,954.2,375.63,953.92,373.92Z" transform="translate(-76.94 -156.57)" style="fill:#ffdf14"/><path d="M998.37,355.18c-3.88.65-9.06,5.72-12.24,13.44-3.51,7.86-3.68,15.06-1.52,18.35h0c3.84-.22,9.75-4.46,13.27-12.33a29.9,29.9,0,0,0,2.6-11.43A15,15,0,0,0,998.37,355.18Z" transform="translate(-76.94 -156.57)" style="fill:#ffdf14"/><path d="M995,439.64l-1.08-13.39L991.69,413c-.39-2.2-.66-4.43-1.16-6.61l-1.64-6.51c-1.15-4.32-2.06-8.72-3.41-13l-2,.62c1.34,4.22,2.24,8.58,3.38,12.86l1.62,6.45c.5,2.16.76,4.37,1.15,6.55l2.17,13.13,1.06,13.27Z" transform="translate(-76.94 -156.57)" style="fill:#ffdf14"/><path d="M1008.21,382.21c-3.87.2-9.79,4.71-14,12.09s-4.86,14.44-3.5,18c1.9.12,4.46-.72,7.14-2.52a24.59,24.59,0,0,0,7.62-8.27C1009.69,394.17,1010,386,1008.21,382.21Z" transform="translate(-76.94 -156.57)" style="fill:#ffdf14"/><path d="M961.94,395.87c3.46-1.77,10.52-1.78,17.6,2.26s11.33,10.34,10.77,14.28c-1.75.79-4.43.89-7.51.27a35.14,35.14,0,0,1-10-4C965.68,404.67,962,399.36,961.94,395.87Z" transform="translate(-76.94 -156.57)" style="fill:#ffdf14"/><path d="M967.12,418.76c3.62-1.37,10.71-.6,17.45,4.19a29.37,29.37,0,0,1,4.46,3.88,21.83,21.83,0,0,1,2.84,4.19c1.46,2.78,2,5.44,1.71,7.35h0c-3.62,1.18-10.78-.84-17-5.67a31.39,31.39,0,0,1-4-3.75,25.11,25.11,0,0,1-3.1-3.74C967.76,422.76,967,420.48,967.12,418.76Z" transform="translate(-76.94 -156.57)" style="fill:#ffdf14"/><path d="M1014.64,410.41c-3.89-.24-10.21,3.57-15,10.4a34.71,34.71,0,0,0-3,5.08,32.1,32.1,0,0,0-2.09,4.85c-1,3.07-1.16,5.75-.52,7.6h0c3.77.65,10.54-2.17,15.87-9.06a29.94,29.94,0,0,0,3.3-5.31,27,27,0,0,0,1.63-5.23A16.14,16.14,0,0,0,1014.64,410.41Z" transform="translate(-76.94 -156.57)" style="fill:#ffdf14"/><path d="M992.55,492c.33-2.21.81-4.41,1-6.63l.62-6.69c.38-4.46.89-8.91,1.15-13.38l.09-13.42c0-2.24.11-4.48,0-6.72l-.52-6.69-2.13.15.52,6.63c.16,2.21,0,4.44,0,6.65l-.09,13.31c-.26,4.42-.77,8.84-1.14,13.25l-.61,6.63c-.21,2.21-.68,4.38-1,6.57Z" transform="translate(-76.94 -156.57)" style="fill:#ffdf14"/><path d="M1018,439c-3.92-.67-10.36,2.39-16,8.63-5.9,6.25-8.43,13-7.47,16.8,3.69,1.07,10.67-1,16.58-7.23a29.82,29.82,0,0,0,6.23-9.92A14.15,14.15,0,0,0,1018,439Z" transform="translate(-76.94 -156.57)" style="fill:#ffdf14"/><path d="M969.88,441.94c3.67-.95,10.89.61,16.94,6.12,5.82,5.52,8.26,12.62,7.27,16.35-3.71.77-10.66-2-16.5-7.55a27,27,0,0,1-6.11-8.26C970.34,446,969.56,443.64,969.88,441.94Z" transform="translate(-76.94 -156.57)" style="fill:#ffdf14"/><path d="M970.14,465.42c3.86-.52,10.53,1.82,15.86,8s7.3,13.51,5.53,17.05h0c-1.91.18-4.48-.62-7.2-2.22a36,36,0,0,1-8.24-7.09C970.75,475,969,468.73,970.14,465.42Z" transform="translate(-76.94 -156.57)" style="fill:#ffdf14"/><path d="M1018.33,467.89c-3.72-1.1-10.8,1.19-17.21,6.75s-9.33,12-9.18,15.87h0c1.76.73,4.45.78,7.57,0a24.4,24.4,0,0,0,9.83-5.3C1015.76,479.64,1018.75,472,1018.33,467.89Z" transform="translate(-76.94 -156.57)" style="fill:#ffdf14"/><path d="M978.63,542.52a234.42,234.42,0,0,0,14.12-51.7l-2.11-.32a232.26,232.26,0,0,1-14,51.23Z" transform="translate(-76.94 -156.57)" style="fill:#ffdf14"/><path d="M1015.2,496.45c-3.6-1.5-10.81,0-17.57,4.87a32.89,32.89,0,0,0-8.15,7.71,14.35,14.35,0,0,0-2.89,7c3.29,1.84,10.84,1.45,17.87-3.37a29.26,29.26,0,0,0,8.21-8.32A16.15,16.15,0,0,0,1015.2,496.45Z" transform="translate(-76.94 -156.57)" style="fill:#ffdf14"/><path d="M967.58,488.7c3.86-.11,10.31,3,15.15,9.72a26,26,0,0,1,4.16,10c.55,3.13.35,5.86-.7,7.53-3.87-.09-9.75-4.27-14.33-11a27.27,27.27,0,0,1-4.2-9.42C966.9,492.71,966.91,490.29,967.58,488.7Z" transform="translate(-76.94 -156.57)" style="fill:#ffdf14"/><path d="M962.53,511.65c3.86.33,9.91,4.1,13.93,11.33a24.35,24.35,0,0,1,3,10.41c.16,3.16-.3,5.86-1.51,7.41h0c-1.91-.25-4.24-1.6-6.51-3.76a32.75,32.75,0,0,1-6.53-8.75,30.4,30.4,0,0,1-3.15-9.83C961.38,515.55,961.68,513.16,962.53,511.65Z" transform="translate(-76.94 -156.57)" style="fill:#ffdf14"/><path d="M1009,524.66c-3.4-1.9-10.75-1.2-18,2.87a35.66,35.66,0,0,0-8.93,6.76,13.5,13.5,0,0,0-3.63,6.66h0c1.54,1.1,4.16,1.75,7.39,1.65a25.77,25.77,0,0,0,10.72-3,27.11,27.11,0,0,0,9-7.36A16.08,16.08,0,0,0,1009,524.66Z" transform="translate(-76.94 -156.57)" style="fill:#ffdf14"/><path d="M953.76,588.67a232,232,0,0,0,25.33-47.24l-2-.78a230.15,230.15,0,0,1-25.1,46.8Z" transform="translate(-76.94 -156.57)" style="fill:#ffdf14"/><path d="M999.71,551.89c-3.16-2.26-10.56-2.39-18.3.82a37.29,37.29,0,0,0-9.61,5.73c-2.42,2.1-3.9,4.31-4.34,6.22,2.86,2.55,10.09,3.76,18.13.67C993.8,562.34,998.82,556,999.71,551.89Z" transform="translate(-76.94 -156.57)" style="fill:#ffdf14"/><path d="M955,533.76c3.8.77,9.39,5.18,12.54,12.81a23.75,23.75,0,0,1,1.87,10.69c-.19,3.16-1,5.76-2.32,7.2-3.69-.91-8.69-6.41-11.56-13.9C952.83,543.14,952.93,536.55,955,533.76Z" transform="translate(-76.94 -156.57)" style="fill:#ffdf14"/><path d="M945,555c3.69,1.19,8.74,6.2,11,14.13a23.44,23.44,0,0,1,.67,10.84c-.55,3.12-1.7,5.59-3.12,6.89h0c-3.56-1.32-7.94-7.38-9.92-15.13S942.58,557.49,945,555Z" transform="translate(-76.94 -156.57)" style="fill:#ffdf14"/><path d="M987.36,578.05c-2.89-2.61-10.23-3.58-18.3-1.27a37.75,37.75,0,0,0-10.18,4.61c-2.64,1.81-4.39,3.83-5,5.69h0c2.56,2.86,9.57,4.84,17.94,2.71S986,582,987.36,578.05Z" transform="translate(-76.94 -156.57)" style="fill:#ffdf14"/><path d="M919.22,628.1a234.91,234.91,0,0,0,35.24-40.38l-1.76-1.21a232.31,232.31,0,0,1-34.92,40Z" transform="translate(-76.94 -156.57)" style="fill:#ffdf14"/><path d="M972.21,602.52c-2.58-2.91-9.76-4.71-18.05-3.32a38.37,38.37,0,0,0-10.63,3.44c-2.83,1.51-4.8,3.31-5.63,5.09,2.22,3.13,9,5.89,17.53,4.71S970.37,606.25,972.21,602.52Z" transform="translate(-76.94 -156.57)" style="fill:#ffdf14"/><path d="M932.69,574.85c3.53,1.59,8,7.13,9.32,15.26a23.36,23.36,0,0,1-.55,10.86c-.89,3-2.32,5.35-3.88,6.49-3.39-1.71-7.06-8.22-8.15-16.13S930,577.05,932.69,574.85Z" transform="translate(-76.94 -156.57)" style="fill:#ffdf14"/><path d="M918.16,593.3c3.34,2,7.13,8,7.55,16.21a27.21,27.21,0,0,1-.3,5.85,24.07,24.07,0,0,1-1.46,4.88c-1.23,2.91-2.9,5.06-4.58,6h0c-3.17-2.07-6.1-9-6.29-16.93a29.53,29.53,0,0,1,.36-5.55,28,28,0,0,1,1.05-4.71C915.39,596.27,916.72,594.27,918.16,593.3Z" transform="translate(-76.94 -156.57)" style="fill:#ffdf14"/><path d="M954.33,625.23c-2.24-3.18-9.18-5.77-17.57-5.33a38.78,38.78,0,0,0-5.89.8,28.5,28.5,0,0,0-5,1.44c-3,1.18-5.15,2.75-6.17,4.42h0c1.85,3.36,8.26,6.86,16.9,6.65S952.08,628.73,954.33,625.23Z" transform="translate(-76.94 -156.57)" style="fill:#ffdf14"/><path d="M876.8,658.92a235.48,235.48,0,0,0,43.29-31.61l-1.44-1.57a233.07,233.07,0,0,1-42.91,31.33Z" transform="translate(-76.94 -156.57)" style="fill:#ffdf14"/><path d="M934.13,645.7c-1.87-3.41-8.48-6.76-16.87-7.25a36.18,36.18,0,0,0-5.94.14,28.37,28.37,0,0,0-5.18.87c-3.1.83-5.42,2.16-6.63,3.7,1.47,3.55,7.45,7.73,16.06,8.49a30.49,30.49,0,0,0,6.21-.09,26.06,26.06,0,0,0,5.34-1.36A16.3,16.3,0,0,0,934.13,645.7Z" transform="translate(-76.94 -156.57)" style="fill:#ffdf14"/><path d="M901.73,610c3.1,2.34,6.2,8.73,5.7,16.94a28,28,0,0,1-.95,5.78,24,24,0,0,1-2,4.69c-1.55,2.76-3.45,4.7-5.23,5.46-2.93-2.41-5.07-9.57-4.37-17.52a29,29,0,0,1,1-5.47,26.38,26.38,0,0,1,1.56-4.58C898.65,612.59,900.2,610.75,901.73,610Z" transform="translate(-76.94 -156.57)" style="fill:#ffdf14"/><path d="M883.46,624.73c2.82,2.67,5.18,9.37,3.77,17.47a28.16,28.16,0,0,1-1.58,5.65,23.94,23.94,0,0,1-2.5,4.43c-1.85,2.57-4,4.29-5.81,4.85h0c-2.64-2.73-4-10.08-2.39-17.91a30,30,0,0,1,1.58-5.32,25.41,25.41,0,0,1,2.06-4.37C880.1,627,881.85,625.36,883.46,624.73Z" transform="translate(-76.94 -156.57)" style="fill:#ffdf14"/><path d="M911.67,663.87c-1.47-3.59-7.67-7.65-16-9.08a34.52,34.52,0,0,0-5.91-.52,28.27,28.27,0,0,0-5.25.28c-3.17.48-5.63,1.54-7,2.94h0c1.06,3.69,6.54,8.51,15,10.23a31,31,0,0,0,6.18.6,26.26,26.26,0,0,0,5.45-.75A16.32,16.32,0,0,0,911.67,663.87Z" transform="translate(-76.94 -156.57)" style="fill:#ffdf14"/><path d="M657.39,245.86c-.53,3.78-4.51,9.85-11.58,13.73-3.61,1.83-6.9,3.42-10,4a12.82,12.82,0,0,1-7.53-.36c-.11-1.89.78-4.44,2.62-7.13a23.8,23.8,0,0,1,8.32-7.64C646.75,244.29,654.08,243.81,657.39,245.86Z" transform="translate(-76.94 -156.57)" style="fill:#ffdf14"/><path d="M589.38,298.75c5.72-6.81,12.46-12.62,18.88-18.75,3.33-2.92,6.91-5.57,10.35-8.37l5.2-4.15c1.82-1.28,3.68-2.48,5.52-3.73L628.12,262c-1.86,1.26-3.74,2.47-5.57,3.76L617.3,270c-3.48,2.82-7.08,5.5-10.44,8.45-6.48,6.18-13.28,12.05-19.06,18.91Z" transform="translate(-76.94 -156.57)" style="fill:#ffdf14"/><path d="M641,283.7a14.43,14.43,0,0,0-5.22-5.52,24,24,0,0,0-10.09-3.83c-8-1.13-15.12,1.31-17.37,4.45,1.72,3.39,8.19,7,16.2,8.19S638.52,286,641,283.7Z" transform="translate(-76.94 -156.57)" style="fill:#ffdf14"/><path d="M613.25,244.23c1.46,1.3,2.64,3.72,3.25,6.84a34.65,34.65,0,0,1,.06,11.15c-1.22,8.49-5,14.58-8.52,16.26-3.14-2.21-5.95-9-4.69-17.46S609.24,245.71,613.25,244.23Z" transform="translate(-76.94 -156.57)" style="fill:#ffdf14"/><path d="M590.54,262.12c3.18,2.22,5.79,9.18,5.4,17.61a31.36,31.36,0,0,1-2.35,10.81c-1.11,3-2.61,5.28-4.24,6.35h0c-3.34-1.83-6.9-8.28-6.85-17.06C582.85,271.37,587,264.35,590.54,262.12Z" transform="translate(-76.94 -156.57)" style="fill:#ffdf14"/><path d="M622.54,298.23c-2-3.34-8-7.1-16.18-7.47a27.23,27.23,0,0,0-10.87,1.64c-2.84,1.31-4.92,3.05-5.83,4.77h0c2.1,3.2,8.93,6.05,16.78,6.1C614.59,303.61,620.63,301.14,622.54,298.23Z" transform="translate(-76.94 -156.57)" style="fill:#ffdf14"/><path d="M558.89,340.82c8.89-15.33,19-30.06,31.27-42.94l-1.57-1.44c-12.35,13-22.59,27.86-31.56,43.33Z" transform="translate(-76.94 -156.57)" style="fill:#ffdf14"/><path d="M606,314.77c-2.33-3.08-8.77-6.21-17.08-5.78-8.16.55-14.28,4.76-15.83,8.28,2.42,2.92,9.58,5.05,17.53,4.33a31,31,0,0,0,9.95-2.63C603.27,317.79,605.16,316.27,606,314.77Z" transform="translate(-76.94 -156.57)" style="fill:#ffdf14"/><path d="M570.18,282.44c3.42,1.87,6.74,8.44,7.15,16.74s-1.45,15.46-4.59,17.84c-3.54-1.46-7.74-7.43-8.52-16a26.72,26.72,0,0,1,1.33-11.63A16.08,16.08,0,0,1,570.18,282.44Z" transform="translate(-76.94 -156.57)" style="fill:#ffdf14"/><path d="M552,304.86c3.64,1.5,7.5,7.53,9.15,16a31.62,31.62,0,0,1,.24,11.16,17.34,17.34,0,0,1-1.23,4.11,8.87,8.87,0,0,1-1.68,2.9h0c-1.82-.52-4-2.16-5.91-4.75A24.18,24.18,0,0,1,548.15,324C546.62,315.65,548.81,307.67,552,304.86Z" transform="translate(-76.94 -156.57)" style="fill:#ffdf14"/><path d="M591.14,333c-2.63-2.78-9.55-5.28-17.44-3.71a26.84,26.84,0,0,0-10.1,4.1,17.66,17.66,0,0,0-3.27,2.84,8,8,0,0,0-1.53,3h0c1.39,1.32,3.89,2.3,7,2.73a36.11,36.11,0,0,0,10.88-.39,28,28,0,0,0,9.73-3.65A13.08,13.08,0,0,0,591.14,333Z" transform="translate(-76.94 -156.57)" style="fill:#ffdf14"/><path d="M538.41,388.59l4.31-12.6c.77-2.08,1.34-4.24,2.26-6.26l2.66-6.1,2.67-6.1a60,60,0,0,1,2.83-6l6.3-11.73-1.85-1-6.36,11.83a62.16,62.16,0,0,0-2.86,6.07l-2.69,6.16L543,369c-.93,2-1.51,4.21-2.28,6.31L536.37,388Z" transform="translate(-76.94 -156.57)" style="fill:#ffdf14"/><path d="M578.65,352.77c-3-2.49-9.9-4.09-17.81-1.78-8.11,2.2-13,7.72-13.64,11.55,3,2.32,10.43,2.79,17.92.28a34.4,34.4,0,0,0,9.29-4.68C576.74,356.36,578.2,354.45,578.65,352.77Z" transform="translate(-76.94 -156.57)" style="fill:#ffdf14"/><path d="M536.57,329.16c3.74,1.06,8.47,6.76,10.81,14.82,2.12,8,1.87,15.33-.56,18.39-3.77-.63-9.23-5.55-12-13.83A24.77,24.77,0,0,1,533.72,337,16.25,16.25,0,0,1,536.57,329.16Z" transform="translate(-76.94 -156.57)" style="fill:#ffdf14"/><path d="M523.88,355.14c3.89.65,9.07,5.72,12.25,13.45,3.5,7.86,3.67,15.06,1.51,18.35h0c-3.84-.21-9.75-4.46-13.26-12.33a29.76,29.76,0,0,1-2.6-11.44A15.14,15.14,0,0,1,523.88,355.14Z" transform="translate(-76.94 -156.57)" style="fill:#ffdf14"/><path d="M568.34,373.89c-3.18-2.13-10.4-3-18.05.15-7.31,3.27-12,9.18-12.25,13h0c3.25,2,10.73,1.61,18.05-1.66a26.79,26.79,0,0,0,8.49-5.77C566.65,377.59,568.05,375.59,568.34,373.89Z" transform="translate(-76.94 -156.57)" style="fill:#ffdf14"/><path d="M529.4,439.77l1.07-13.27,2.17-13.14c.39-2.18.65-4.39,1.15-6.55l1.62-6.46c1.14-4.28,2-8.64,3.38-12.87l-2-.62c-1.35,4.27-2.26,8.66-3.41,13l-1.64,6.52c-.5,2.18-.77,4.41-1.16,6.61l-2.18,13.26-1.08,13.39Z" transform="translate(-76.94 -156.57)" style="fill:#ffdf14"/><path d="M560.32,395.84c-3.47-1.77-10.53-1.78-17.6,2.26s-11.34,10.35-10.78,14.29c1.75.79,4.43.89,7.51.27a35.14,35.14,0,0,0,10-4C556.57,404.64,560.27,399.33,560.32,395.84Z" transform="translate(-76.94 -156.57)" style="fill:#ffdf14"/><path d="M514.05,382.19c3.86.19,9.79,4.71,14,12.08s4.86,14.45,3.5,18c-1.9.12-4.46-.72-7.14-2.52a24.59,24.59,0,0,1-7.62-8.27C512.56,394.15,512.27,386,514.05,382.19Z" transform="translate(-76.94 -156.57)" style="fill:#ffdf14"/><path d="M507.61,410.39c3.89-.24,10.22,3.57,15,10.4a34.79,34.79,0,0,1,3,5.09,32.1,32.1,0,0,1,2.09,4.85c1,3.07,1.15,5.75.52,7.6h0c-3.77.65-10.54-2.17-15.87-9.06a29.94,29.94,0,0,1-3.3-5.31,26.87,26.87,0,0,1-1.63-5.24A16.14,16.14,0,0,1,507.61,410.39Z" transform="translate(-76.94 -156.57)" style="fill:#ffdf14"/><path d="M555.13,418.74c-3.62-1.37-10.71-.59-17.45,4.2a29.89,29.89,0,0,0-4.46,3.87,22.2,22.2,0,0,0-2.84,4.2c-1.46,2.78-2,5.44-1.71,7.35h0c3.62,1.19,10.77-.83,17-5.67a30.85,30.85,0,0,0,4-3.75,25.16,25.16,0,0,0,3.1-3.75C554.49,422.75,555.25,420.46,555.13,418.74Z" transform="translate(-76.94 -156.57)" style="fill:#ffdf14"/><path d="M531.78,491.67c-.33-2.19-.8-4.37-1-6.57l-.61-6.63c-.37-4.42-.89-8.84-1.15-13.27l-.08-13.31c0-2.22-.11-4.44,0-6.65l.53-6.64-2.13-.15-.53,6.7c-.15,2.23,0,4.48,0,6.71l.08,13.44c.26,4.47.78,8.92,1.16,13.38l.61,6.69c.22,2.23.69,4.43,1,6.64Z" transform="translate(-76.94 -156.57)" style="fill:#ffdf14"/><path d="M552.37,441.94c-3.67-.95-10.89.6-16.94,6.12-5.82,5.52-8.27,12.63-7.27,16.35,3.71.77,10.66-2,16.5-7.55a27,27,0,0,0,6.11-8.26C551.91,446,552.69,443.63,552.37,441.94Z" transform="translate(-76.94 -156.57)" style="fill:#ffdf14"/><path d="M504.22,439c3.92-.67,10.36,2.39,16,8.63,5.9,6.26,8.42,13,7.47,16.82-3.69,1.07-10.67-1-16.58-7.24a29.92,29.92,0,0,1-6.23-9.92A14.18,14.18,0,0,1,504.22,439Z" transform="translate(-76.94 -156.57)" style="fill:#ffdf14"/><path d="M503.92,467.89c3.71-1.09,10.8,1.2,17.21,6.76s9.33,12,9.18,15.88h0c-1.76.74-4.45.79-7.57,0a24.28,24.28,0,0,1-9.83-5.3C506.49,479.65,503.5,472,503.92,467.89Z" transform="translate(-76.94 -156.57)" style="fill:#ffdf14"/><path d="M552.11,465.43c-3.87-.53-10.53,1.81-15.86,8s-7.3,13.53-5.53,17.07h0c1.91.17,4.48-.62,7.2-2.23a35.53,35.53,0,0,0,8.24-7.09C551.5,475,553.22,468.74,552.11,465.43Z" transform="translate(-76.94 -156.57)" style="fill:#ffdf14"/><path d="M545.58,541.77a232.28,232.28,0,0,1-14-51.25l-2.11.32a235,235,0,0,0,14.12,51.73Z" transform="translate(-76.94 -156.57)" style="fill:#ffdf14"/><path d="M554.67,488.71c-3.86-.1-10.31,3-15.15,9.73a26.13,26.13,0,0,0-4.16,10c-.55,3.14-.35,5.86.71,7.53,3.86-.08,9.74-4.27,14.32-11a27.39,27.39,0,0,0,4.2-9.43C555.35,492.73,555.34,490.31,554.67,488.71Z" transform="translate(-76.94 -156.57)" style="fill:#ffdf14"/><path d="M507.05,496.47c3.6-1.51,10.81,0,17.58,4.87a32.67,32.67,0,0,1,8.14,7.72,14.19,14.19,0,0,1,2.89,7c-3.29,1.84-10.83,1.45-17.87-3.38a29.26,29.26,0,0,1-8.21-8.32A16.18,16.18,0,0,1,507.05,496.47Z" transform="translate(-76.94 -156.57)" style="fill:#ffdf14"/><path d="M513.26,524.68c3.4-1.89,10.76-1.19,18.06,2.88a35.6,35.6,0,0,1,8.92,6.76,13.55,13.55,0,0,1,3.64,6.67h0c-1.54,1.11-4.17,1.76-7.4,1.65a25.71,25.71,0,0,1-10.71-3,27.3,27.3,0,0,1-9.06-7.37A16.27,16.27,0,0,1,513.26,524.68Z" transform="translate(-76.94 -156.57)" style="fill:#ffdf14"/><path d="M559.72,511.68c-3.86.33-9.91,4.09-13.93,11.33a24.49,24.49,0,0,0-3,10.42c-.15,3.15.31,5.86,1.52,7.41h0c1.9-.26,4.23-1.6,6.51-3.76a33,33,0,0,0,6.52-8.76,30.08,30.08,0,0,0,3.15-9.83C560.87,515.57,560.57,513.18,559.72,511.68Z" transform="translate(-76.94 -156.57)" style="fill:#ffdf14"/><path d="M570.24,587.52a229.93,229.93,0,0,1-25.11-46.83l-2,.79a232.45,232.45,0,0,0,25.35,47.26Z" transform="translate(-76.94 -156.57)" style="fill:#ffdf14"/><path d="M567.26,533.8c-3.8.76-9.39,5.18-12.54,12.81a23.77,23.77,0,0,0-1.87,10.7c.19,3.16,1,5.76,2.32,7.2,3.69-.91,8.69-6.42,11.56-13.91C569.43,543.19,569.32,536.59,567.26,533.8Z" transform="translate(-76.94 -156.57)" style="fill:#ffdf14"/><path d="M522.55,551.93c3.16-2.26,10.56-2.39,18.3.82a37.29,37.29,0,0,1,9.61,5.73,12.76,12.76,0,0,1,4.34,6.23c-2.86,2.55-10.09,3.75-18.13.67C528.46,562.38,523.44,556,522.55,551.93Z" transform="translate(-76.94 -156.57)" style="fill:#ffdf14"/><path d="M534.91,578.09c2.88-2.6,10.22-3.57,18.29-1.26a37.75,37.75,0,0,1,10.18,4.61c2.65,1.82,4.4,3.84,5,5.7h0c-2.55,2.87-9.57,4.85-17.94,2.71S536.29,582,534.91,578.09Z" transform="translate(-76.94 -156.57)" style="fill:#ffdf14"/><path d="M577.28,555c-3.69,1.19-8.73,6.2-11,14.13a23.61,23.61,0,0,0-.66,10.85c.55,3.11,1.7,5.59,3.12,6.89h0c3.56-1.31,7.94-7.37,9.92-15.12S579.69,557.54,577.28,555Z" transform="translate(-76.94 -156.57)" style="fill:#ffdf14"/><path d="M604.49,626.62a232.5,232.5,0,0,1-34.94-40l-1.76,1.2a234.47,234.47,0,0,0,35.26,40.41Z" transform="translate(-76.94 -156.57)" style="fill:#ffdf14"/><path d="M589.58,574.9c-3.54,1.6-8,7.14-9.32,15.27a23.36,23.36,0,0,0,.55,10.86c.9,3,2.32,5.36,3.88,6.49,3.39-1.7,7.06-8.21,8.15-16.13S592.28,577.11,589.58,574.9Z" transform="translate(-76.94 -156.57)" style="fill:#ffdf14"/><path d="M550.06,602.57c2.57-2.91,9.76-4.7,18.05-3.31a38,38,0,0,1,10.63,3.45c2.83,1.5,4.8,3.31,5.63,5.09-2.22,3.13-9,5.89-17.53,4.71S551.9,606.31,550.06,602.57Z" transform="translate(-76.94 -156.57)" style="fill:#ffdf14"/><path d="M568,625.3c2.23-3.18,9.17-5.77,17.57-5.33a39,39,0,0,1,5.89.8,28.5,28.5,0,0,1,5.05,1.44c3,1.18,5.15,2.75,6.17,4.42h0c-1.85,3.36-8.26,6.85-16.9,6.64S570.2,628.8,568,625.3Z" transform="translate(-76.94 -156.57)" style="fill:#ffdf14"/><path d="M604.12,593.37c-3.34,2-7.13,8-7.55,16.21a26.59,26.59,0,0,0,.3,5.85,24.07,24.07,0,0,0,1.46,4.88c1.23,2.91,2.91,5.06,4.59,6h0c3.18-2.08,6.1-9,6.29-16.94a30.4,30.4,0,0,0-.36-5.55,28.4,28.4,0,0,0-1.05-4.72C606.88,596.34,605.55,594.34,604.12,593.37Z" transform="translate(-76.94 -156.57)" style="fill:#ffdf14"/><path d="M646.54,657.18a233.59,233.59,0,0,1-42.92-31.35l-1.44,1.57A235.85,235.85,0,0,0,645.49,659Z" transform="translate(-76.94 -156.57)" style="fill:#ffdf14"/><path d="M620.55,610c-3.1,2.34-6.2,8.73-5.69,16.94a28,28,0,0,0,.94,5.79,24.24,24.24,0,0,0,2,4.69c1.55,2.76,3.45,4.71,5.23,5.47,2.93-2.42,5.07-9.58,4.37-17.53a31,31,0,0,0-1-5.48,27.12,27.12,0,0,0-1.56-4.57C623.64,612.67,622.09,610.83,620.55,610Z" transform="translate(-76.94 -156.57)" style="fill:#ffdf14"/><path d="M588.16,645.77c1.86-3.4,8.47-6.75,16.87-7.25a37.27,37.27,0,0,1,5.94.15,29.45,29.45,0,0,1,5.18.86c3.1.84,5.42,2.17,6.63,3.71-1.47,3.55-7.45,7.73-16.06,8.49a30.58,30.58,0,0,1-6.22-.09,25.8,25.8,0,0,1-5.33-1.36A16.15,16.15,0,0,1,588.16,645.77Z" transform="translate(-76.94 -156.57)" style="fill:#ffdf14"/><path d="M610.62,664c1.47-3.6,7.67-7.66,16-9.09a35.67,35.67,0,0,1,5.92-.52,29.16,29.16,0,0,1,5.25.28c3.17.49,5.63,1.54,7,3h0c-1.06,3.69-6.54,8.51-15,10.22a31.13,31.13,0,0,1-6.19.61,26.24,26.24,0,0,1-5.45-.76A16.32,16.32,0,0,1,610.62,664Z" transform="translate(-76.94 -156.57)" style="fill:#ffdf14"/><path d="M638.83,624.82c-2.82,2.67-5.18,9.36-3.77,17.46a28.64,28.64,0,0,0,1.58,5.65,24.64,24.64,0,0,0,2.51,4.44c1.85,2.56,4,4.29,5.81,4.84h0c2.64-2.73,4-10.08,2.39-17.91a29.88,29.88,0,0,0-1.59-5.33,26.14,26.14,0,0,0-2.06-4.37C642.19,627.1,640.45,625.44,638.83,624.82Z" transform="translate(-76.94 -156.57)" style="fill:#ffdf14"/><line x1="945.21" y1="582.81" x2="1062.65" y2="582.81" style="fill:none;stroke:#fedf07;stroke-miterlimit:10;stroke-width:3px"/><polyline points="1131.7 29.46 1064.14 29.46 1064.14 1136.16 1131.7 1136.16" style="fill:none;stroke:#fedf07;stroke-miterlimit:10;stroke-width:3px"/><rect x="1150.64" y="0.65" width="219.73" height="57.62" rx="2.72" style="fill:#ffdf14"/><rect x="1150.64" y="1107.36" width="219.73" height="57.62" rx="2.72" style="fill:#ffdf14"/><rect x="709.97" y="554" width="219.73" height="57.62" rx="2.72" style="fill:#ffdf14"/><line x1="425.16" y1="582.16" x2="307.72" y2="582.16" style="fill:none;stroke:#fedf07;stroke-miterlimit:10;stroke-width:3px"/><polyline points="238.67 28.81 306.24 28.81 306.24 1135.52 238.67 1135.52" style="fill:none;stroke:#fedf07;stroke-miterlimit:10;stroke-width:3px"/><rect x="76.94" y="156.57" width="219.73" height="57.62" rx="2.72" transform="translate(296.67 214.19) rotate(-180)" style="fill:#ffdf14"/><rect x="76.94" y="1263.28" width="219.73" height="57.62" rx="2.72" transform="translate(296.67 2427.6) rotate(180)" style="fill:#ffdf14"/><rect x="517.61" y="709.92" width="219.73" height="57.62" rx="2.72" transform="translate(1178.01 1320.9) rotate(-180)" style="fill:#ffdf14"/></svg>